{"glyphs":{"0":{"ha":794,"x_min":60,"x_max":734,"o":"m 60 347 l 60 639 q 74 780 60 730 q 119 872 87 830 q 240 971 169 937 q 397 1006 311 1006 q 560 969 487 1006 q 682 863 633 932 q 722 772 709 823 q 734 644 734 720 l 734 343 q 722 210 734 262 q 681 118 709 157 q 559 16 633 52 q 397 -20 486 -20 q 240 15 312 -20 q 117 114 168 49 q 73 207 87 152 q 60 347 60 261 m 207 322 l 207 307 q 212 237 207 260 q 231 196 218 214 q 299 138 256 159 q 395 117 343 117 q 538 169 491 117 q 586 328 586 221 l 586 659 q 581 745 586 720 q 562 789 575 770 q 493 848 537 827 q 396 869 449 869 q 302 849 345 869 q 233 793 259 829 q 213 745 219 773 q 207 660 207 717 l 207 322 z "},"1":{"ha":794,"x_min":165,"x_max":482,"o":"m 482 0 l 338 0 l 338 871 l 165 871 l 165 987 l 482 987 l 482 0 z "},"2":{"ha":794,"x_min":83,"x_max":711,"o":"m 708 0 l 83 0 l 83 138 l 429 469 l 435 475 q 571 693 571 606 q 520 820 571 769 q 392 871 469 871 q 264 819 310 871 q 218 673 218 766 l 218 663 l 83 663 l 83 665 q 172 912 83 819 q 404 1006 260 1006 q 622 916 533 1006 q 711 699 711 826 q 678 562 711 627 q 568 427 644 498 l 261 138 l 708 138 l 708 0 z "},"3":{"ha":794,"x_min":71,"x_max":711,"o":"m 71 302 l 204 302 q 258 166 208 219 q 383 114 308 114 q 519 169 465 114 q 574 306 574 224 q 518 448 574 397 q 359 498 462 498 q 338 498 345 498 q 325 498 330 498 l 325 631 q 336 631 330 631 q 354 631 342 631 q 469 662 430 631 q 507 754 507 692 q 475 841 507 806 q 393 875 442 875 q 307 843 338 875 q 272 754 275 811 l 142 754 q 216 938 146 869 q 397 1007 286 1007 q 571 935 500 1007 q 643 762 643 863 q 620 656 643 701 q 547 578 597 612 q 669 478 627 547 q 711 314 711 410 q 620 77 711 173 q 392 -20 528 -20 q 159 66 245 -20 q 71 302 74 152 z "},"4":{"ha":794,"x_min":60,"x_max":732,"o":"m 632 0 l 494 0 l 494 172 l 60 172 l 60 298 l 494 987 l 632 987 l 632 298 l 732 298 l 732 172 l 632 172 l 632 0 m 494 298 l 494 783 l 199 298 l 494 298 z "},"5":{"ha":794,"x_min":53,"x_max":741,"o":"m 53 301 l 192 301 q 257 169 203 218 q 389 119 311 119 q 538 180 479 119 q 597 335 597 241 q 539 485 597 427 q 386 542 481 542 q 288 520 330 542 q 221 457 245 498 l 98 484 l 191 987 l 647 987 l 647 848 l 292 848 l 244 616 q 320 663 278 648 q 412 677 361 677 q 646 578 551 677 q 741 334 741 478 q 638 82 741 183 q 379 -20 535 -20 q 148 67 236 -20 q 53 301 60 153 z "},"6":{"ha":794,"x_min":54,"x_max":739,"o":"m 418 987 l 575 987 l 351 652 q 391 664 372 660 q 428 668 410 668 q 648 571 557 668 q 739 336 739 473 q 727 244 739 290 q 689 154 714 199 q 567 24 642 68 q 395 -20 492 -20 q 263 6 325 -20 q 154 81 202 32 q 80 191 106 130 q 54 317 54 253 q 201 663 54 444 l 201 664 l 418 987 m 189 338 q 249 183 189 247 q 393 119 309 119 q 540 179 482 119 q 597 330 597 238 q 541 481 597 422 q 397 541 484 541 q 250 480 311 541 q 189 338 189 420 z "},"7":{"ha":794,"x_min":134,"x_max":689,"o":"m 328 0 l 176 0 l 553 851 l 134 851 l 134 987 l 689 987 l 689 838 l 328 0 z "},"8":{"ha":794,"x_min":90,"x_max":704,"o":"m 225 298 q 273 167 225 219 q 393 115 321 115 q 519 166 469 115 q 568 296 568 217 q 521 427 568 377 q 397 476 474 476 q 272 428 319 476 q 225 298 225 379 m 273 746 q 307 648 273 684 q 396 611 340 611 q 488 646 454 611 q 521 743 521 681 q 487 838 521 801 q 399 875 452 875 q 309 838 345 875 q 273 746 273 802 m 236 547 q 160 632 186 582 q 134 745 134 683 q 210 929 134 852 q 395 1006 286 1006 q 585 930 509 1006 q 661 743 661 854 q 634 631 661 681 q 554 547 606 581 q 666 453 628 515 q 704 302 704 391 q 616 71 704 162 q 392 -20 529 -20 q 177 72 264 -20 q 90 297 90 164 q 126 448 90 387 q 236 547 161 509 z "},"9":{"ha":794,"x_min":53,"x_max":739,"o":"m 604 648 q 545 803 604 740 q 400 867 485 867 q 251 809 307 867 q 195 656 195 751 q 251 506 195 564 q 396 447 308 447 q 544 506 484 447 q 604 648 604 565 m 376 0 l 216 0 l 440 335 q 400 322 419 326 q 364 318 381 318 q 144 415 235 318 q 53 650 53 513 q 66 743 53 696 q 104 835 79 789 q 226 962 150 918 q 397 1007 302 1007 q 528 982 467 1007 q 637 907 589 956 q 712 795 686 857 q 739 671 739 734 q 597 331 739 544 l 593 326 l 376 0 z "},"Ď":{"ha":833,"x_min":69,"x_max":764,"o":"m 69 -245 l 69 979 l 764 979 l 764 -245 l 69 -245 m 147 -168 l 686 -168 l 686 901 l 147 901 l 147 -168 z "},"ď":{"ha":833,"x_min":69,"x_max":764,"o":"m 69 -245 l 69 979 l 764 979 l 764 -245 l 69 -245 m 147 -168 l 686 -168 l 686 901 l 147 901 l 147 -168 z "},"Đ":{"ha":833,"x_min":69,"x_max":764,"o":"m 69 -245 l 69 979 l 764 979 l 764 -245 l 69 -245 m 147 -168 l 686 -168 l 686 901 l 147 901 l 147 -168 z "},"―":{"ha":833,"x_min":69,"x_max":764,"o":"m 69 -245 l 69 979 l 764 979 l 764 -245 l 69 -245 m 147 -168 l 686 -168 l 686 901 l 147 901 l 147 -168 z "},"‖":{"ha":833,"x_min":69,"x_max":764,"o":"m 69 -245 l 69 979 l 764 979 l 764 -245 l 69 -245 m 147 -168 l 686 -168 l 686 901 l 147 901 l 147 -168 z "},"‗":{"ha":833,"x_min":69,"x_max":764,"o":"m 69 -245 l 69 979 l 764 979 l 764 -245 l 69 -245 m 147 -168 l 686 -168 l 686 901 l 147 901 l 147 -168 z "},"‛":{"ha":833,"x_min":69,"x_max":764,"o":"m 69 -245 l 69 979 l 764 979 l 764 -245 l 69 -245 m 147 -168 l 686 -168 l 686 901 l 147 901 l 147 -168 z "},"‟":{"ha":833,"x_min":69,"x_max":764,"o":"m 69 -245 l 69 979 l 764 979 l 764 -245 l 69 -245 m 147 -168 l 686 -168 l 686 901 l 147 901 l 147 -168 z "},"‣":{"ha":833,"x_min":69,"x_max":764,"o":"m 69 -245 l 69 979 l 764 979 l 764 -245 l 69 -245 m 147 -168 l 686 -168 l 686 901 l 147 901 l 147 -168 z "},"․":{"ha":833,"x_min":69,"x_max":764,"o":"m 69 -245 l 69 979 l 764 979 l 764 -245 l 69 -245 m 147 -168 l 686 -168 l 686 901 l 147 901 l 147 -168 z "},"‥":{"ha":833,"x_min":69,"x_max":764,"o":"m 69 -245 l 69 979 l 764 979 l 764 -245 l 69 -245 m 147 -168 l 686 -168 l 686 901 l 147 901 l 147 -168 z "},"∃":{"ha":833,"x_min":69,"x_max":764,"o":"m 69 -245 l 69 979 l 764 979 l 764 -245 l 69 -245 m 147 -168 l 686 -168 l 686 901 l 147 901 l 147 -168 z "},"∄":{"ha":833,"x_min":69,"x_max":764,"o":"m 69 -245 l 69 979 l 764 979 l 764 -245 l 69 -245 m 147 -168 l 686 -168 l 686 901 l 147 901 l 147 -168 z "},"∅":{"ha":833,"x_min":69,"x_max":764,"o":"m 69 -245 l 69 979 l 764 979 l 764 -245 l 69 -245 m 147 -168 l 686 -168 l 686 901 l 147 901 l 147 -168 z "},"∐":{"ha":833,"x_min":69,"x_max":764,"o":"m 69 -245 l 69 979 l 764 979 l 764 -245 l 69 -245 m 147 -168 l 686 -168 l 686 901 l 147 901 l 147 -168 z "},"∓":{"ha":833,"x_min":69,"x_max":764,"o":"m 69 -245 l 69 979 l 764 979 l 764 -245 l 69 -245 m 147 -168 l 686 -168 l 686 901 l 147 901 l 147 -168 z "},"∔":{"ha":833,"x_min":69,"x_max":764,"o":"m 69 -245 l 69 979 l 764 979 l 764 -245 l 69 -245 m 147 -168 l 686 -168 l 686 901 l 147 901 l 147 -168 z "},"∖":{"ha":833,"x_min":69,"x_max":764,"o":"m 69 -245 l 69 979 l 764 979 l 764 -245 l 69 -245 m 147 -168 l 686 -168 l 686 901 l 147 901 l 147 -168 z "},"∗":{"ha":833,"x_min":69,"x_max":764,"o":"m 69 -245 l 69 979 l 764 979 l 764 -245 l 69 -245 m 147 -168 l 686 -168 l 686 901 l 147 901 l 147 -168 z "},"∘":{"ha":833,"x_min":69,"x_max":764,"o":"m 69 -245 l 69 979 l 764 979 l 764 -245 l 69 -245 m 147 -168 l 686 -168 l 686 901 l 147 901 l 147 -168 z "},"∛":{"ha":833,"x_min":69,"x_max":764,"o":"m 69 -245 l 69 979 l 764 979 l 764 -245 l 69 -245 m 147 -168 l 686 -168 l 686 901 l 147 901 l 147 -168 z "},"∜":{"ha":833,"x_min":69,"x_max":764,"o":"m 69 -245 l 69 979 l 764 979 l 764 -245 l 69 -245 m 147 -168 l 686 -168 l 686 901 l 147 901 l 147 -168 z "},"∝":{"ha":833,"x_min":69,"x_max":764,"o":"m 69 -245 l 69 979 l 764 979 l 764 -245 l 69 -245 m 147 -168 l 686 -168 l 686 901 l 147 901 l 147 -168 z "},"≡":{"ha":833,"x_min":69,"x_max":764,"o":"m 69 -245 l 69 979 l 764 979 l 764 -245 l 69 -245 m 147 -168 l 686 -168 l 686 901 l 147 901 l 147 -168 z "},"≢":{"ha":833,"x_min":69,"x_max":764,"o":"m 69 -245 l 69 979 l 764 979 l 764 -245 l 69 -245 m 147 -168 l 686 -168 l 686 901 l 147 901 l 147 -168 z "},"≣":{"ha":833,"x_min":69,"x_max":764,"o":"m 69 -245 l 69 979 l 764 979 l 764 -245 l 69 -245 m 147 -168 l 686 -168 l 686 901 l 147 901 l 147 -168 z "}," ":{"ha":397,"x_min":0,"x_max":0,"o":""},"!":{"ha":403,"x_min":135,"x_max":268,"o":"m 135 244 l 135 987 l 268 987 l 268 244 l 135 244 m 135 0 l 135 158 l 268 158 l 268 0 l 135 0 z "},"\"":{"ha":416,"x_min":61,"x_max":355,"o":"m 355 974 l 355 597 l 261 597 l 261 974 l 355 974 m 155 974 l 155 597 l 61 597 l 61 974 l 155 974 z "},"#":{"ha":1068,"x_min":60,"x_max":1008,"o":"m 657 582 l 481 582 l 418 403 l 595 403 l 657 582 m 627 989 l 517 681 l 690 681 l 802 989 l 913 989 l 804 681 l 1008 681 l 974 582 l 768 582 l 705 404 l 924 404 l 889 304 l 671 304 l 561 -3 l 449 -3 l 558 304 l 383 304 l 273 -3 l 161 -3 l 269 304 l 60 304 l 96 404 l 306 404 l 368 582 l 144 582 l 179 681 l 404 681 l 514 989 l 627 989 z "},"$":{"ha":794,"x_min":92,"x_max":672,"o":"m 92 293 l 218 293 q 263 172 222 212 q 382 131 304 131 q 495 174 453 131 q 538 290 538 218 q 533 338 538 316 q 518 375 528 359 q 387 451 486 427 q 362 457 370 455 q 179 551 238 489 q 121 711 121 612 q 177 891 121 819 q 330 981 233 963 l 330 1124 l 452 1124 l 452 979 q 592 900 539 966 q 651 732 645 835 l 521 732 q 481 824 517 790 q 387 859 445 859 q 289 821 326 859 q 252 720 252 783 q 258 677 252 696 q 278 643 264 659 q 394 591 305 611 q 475 570 447 580 q 622 468 572 535 q 672 307 672 401 q 611 106 672 189 q 452 9 549 23 l 452 -164 l 330 -164 l 330 3 q 157 95 221 18 q 92 293 93 173 z "},"%":{"ha":1218,"x_min":56,"x_max":1162,"o":"m 163 764 q 202 669 163 708 q 297 631 241 631 q 392 669 353 631 q 431 764 431 707 q 392 859 431 820 q 297 897 353 897 q 202 859 241 897 q 163 764 163 820 m 56 764 q 74 858 56 813 q 126 936 92 902 q 205 989 161 970 q 298 1007 250 1007 q 392 989 348 1007 q 471 936 437 970 q 524 858 505 902 q 542 764 542 813 q 524 670 542 714 q 471 591 505 627 q 392 539 437 557 q 298 521 348 521 q 205 539 250 521 q 126 591 161 557 q 74 670 92 626 q 56 764 56 715 m 825 1007 l 921 1007 l 395 -21 l 296 -21 l 825 1007 m 783 224 q 823 128 783 168 q 918 89 862 89 q 1013 128 974 89 q 1051 224 1051 167 q 1013 318 1051 280 q 918 357 975 357 q 822 318 861 357 q 783 224 783 279 m 676 224 q 694 317 676 273 q 747 396 713 361 q 826 448 781 430 q 920 467 870 467 q 1013 448 968 467 q 1092 396 1057 430 q 1144 317 1126 361 q 1162 224 1162 273 q 1144 130 1162 174 q 1092 52 1126 86 q 1013 -1 1057 17 q 920 -20 968 -20 q 826 -1 870 -20 q 747 52 781 17 q 694 130 713 85 q 676 224 676 174 z "},"&":{"ha":964,"x_min":89,"x_max":961,"o":"m 386 625 q 470 690 442 654 q 497 766 497 725 q 468 840 497 810 q 397 871 439 871 q 324 842 354 871 q 294 768 294 812 q 315 696 294 728 q 386 625 335 664 m 570 279 l 366 472 q 261 384 294 431 q 228 278 228 337 q 271 165 228 210 q 378 121 313 121 q 486 160 438 121 q 570 279 534 200 m 673 186 q 545 32 618 83 q 379 -20 471 -20 q 174 67 260 -20 q 89 275 89 154 q 134 430 89 361 q 275 558 178 498 q 189 654 216 605 q 161 762 161 703 q 230 932 161 864 q 403 1000 299 1000 q 563 931 495 1000 q 631 768 631 861 q 591 645 631 701 q 473 546 552 590 l 624 404 l 720 650 l 864 650 l 729 311 l 961 103 l 875 5 l 673 186 z "},"'":{"ha":215,"x_min":61,"x_max":155,"o":"m 155 974 l 155 597 l 61 597 l 61 974 l 155 974 z "},"(":{"ha":386,"x_min":85,"x_max":350,"o":"m 350 -129 l 350 -290 q 146 -136 207 -232 q 85 132 85 -40 l 85 593 q 150 850 85 749 q 350 1007 214 951 l 350 842 q 253 751 281 807 q 225 571 225 694 l 225 171 q 253 -30 225 31 q 350 -129 281 -91 z "},")":{"ha":386,"x_min":35,"x_max":301,"o":"m 35 -129 q 133 -29 104 -91 q 161 171 161 33 l 161 571 q 133 749 161 692 q 35 842 104 806 l 35 1007 q 236 849 171 951 q 301 593 301 748 l 301 132 q 240 -136 301 -39 q 35 -290 178 -232 l 35 -129 z "},"*":{"ha":694,"x_min":74,"x_max":623,"o":"m 347 633 l 228 461 l 135 525 l 267 692 l 74 745 l 110 851 l 294 787 l 294 987 l 399 987 l 399 787 l 585 851 l 623 745 l 427 692 l 559 526 l 468 461 l 347 633 z "},"+":{"ha":1157,"x_min":172,"x_max":985,"o":"m 627 828 l 627 461 l 985 461 l 985 367 l 627 367 l 627 0 l 530 0 l 530 367 l 172 367 l 172 461 l 530 461 l 530 828 l 627 828 z "},",":{"ha":397,"x_min":132,"x_max":265,"o":"m 132 -164 l 132 -79 q 168 -57 157 -74 q 179 -5 179 -40 l 179 8 l 132 8 l 132 167 l 265 167 l 265 21 q 233 -106 265 -61 q 132 -164 201 -151 z "},"-":{"ha":460,"x_min":61,"x_max":399,"o":"m 399 310 l 61 310 l 61 435 l 399 435 l 399 310 z "},".":{"ha":397,"x_min":131,"x_max":267,"o":"m 267 0 l 131 0 l 131 167 l 267 167 l 267 0 z "},"/":{"ha":386,"x_min":-39,"x_max":386,"o":"m 62 -129 l -39 -129 l 286 1007 l 386 1007 l 62 -129 z "},":":{"ha":401,"x_min":132,"x_max":269,"o":"m 269 547 l 132 547 l 132 714 l 269 714 l 269 547 m 269 0 l 132 0 l 132 167 l 269 167 l 269 0 z "},";":{"ha":401,"x_min":134,"x_max":269,"o":"m 269 547 l 134 547 l 134 714 l 269 714 l 269 547 m 135 -164 l 135 -79 q 171 -57 160 -74 q 182 -7 182 -41 l 182 7 l 134 7 l 134 167 l 269 167 l 269 20 q 236 -106 269 -61 q 135 -164 203 -151 z "},"<":{"ha":1157,"x_min":179,"x_max":978,"o":"m 978 682 l 321 414 l 978 147 l 978 43 l 179 371 l 179 458 l 978 786 l 978 682 z "},"=":{"ha":1157,"x_min":172,"x_max":985,"o":"m 985 326 l 985 232 l 172 232 l 172 326 l 985 326 m 985 596 l 985 501 l 172 501 l 172 596 l 985 596 z "},">":{"ha":1157,"x_min":179,"x_max":978,"o":"m 978 458 l 978 371 l 179 43 l 179 147 l 838 414 l 179 682 l 179 786 l 978 458 z "},"?":{"ha":675,"x_min":16,"x_max":606,"o":"m 236 0 l 236 160 l 370 160 l 370 0 l 236 0 m 237 258 q 261 393 237 329 q 332 513 286 456 q 379 562 347 531 q 461 715 461 643 q 417 831 461 787 q 300 875 372 875 q 192 828 233 875 q 149 703 151 781 l 16 703 q 101 922 18 836 q 310 1007 184 1007 q 521 924 436 1007 q 606 718 606 842 q 488 481 606 604 l 478 471 q 398 365 419 410 q 373 258 377 319 l 237 258 z "},"@":{"ha":1389,"x_min":72,"x_max":1318,"o":"m 871 579 l 909 657 l 999 657 l 900 267 q 896 245 897 256 q 895 227 895 235 q 912 179 895 195 q 962 163 929 163 q 1032 181 995 163 q 1104 232 1069 199 q 1189 358 1158 283 q 1219 517 1219 433 q 1090 802 1219 692 q 751 911 961 911 q 585 892 661 911 q 441 833 508 873 q 241 630 312 756 q 170 353 170 505 q 211 144 170 233 q 342 -12 253 55 q 502 -93 410 -64 q 697 -121 595 -121 q 920 -87 812 -121 q 1118 8 1028 -54 l 1156 -47 q 942 -161 1055 -123 q 705 -199 829 -199 q 469 -167 576 -199 q 279 -72 362 -135 q 123 114 175 8 q 72 354 72 220 q 107 566 72 466 q 210 749 142 667 q 448 932 309 869 q 757 994 587 994 q 967 964 867 994 q 1139 878 1067 933 q 1273 721 1227 810 q 1318 529 1318 632 q 1275 315 1318 410 q 1150 155 1232 220 q 1049 99 1104 119 q 936 79 994 79 q 834 106 869 79 q 800 186 800 133 l 800 199 q 713 110 763 138 q 596 81 663 81 q 438 138 492 81 q 383 306 383 196 q 477 573 383 465 q 707 681 570 681 q 805 655 764 681 q 871 579 846 630 m 807 322 l 847 482 q 801 574 836 542 q 713 607 766 607 q 555 519 619 607 q 492 302 492 431 q 525 193 492 231 q 618 154 557 154 q 736 201 684 154 q 807 322 789 248 z "},"A":{"ha":836,"x_min":-43,"x_max":868,"o":"m 551 427 l 412 802 l 271 427 l 551 427 m 220 288 l 109 0 l -43 0 l 343 987 l 482 987 l 868 0 l 711 0 l 603 288 l 220 288 z "},"B":{"ha":714,"x_min":86,"x_max":672,"o":"m 228 574 l 273 574 q 431 607 384 574 q 478 718 478 641 q 435 820 478 787 q 304 852 393 852 l 228 852 l 228 574 m 227 134 l 339 134 q 485 171 438 134 q 532 285 532 208 q 483 412 532 369 q 339 456 434 456 l 227 456 l 227 134 m 298 987 q 538 918 456 987 q 621 717 621 849 q 594 609 621 656 q 515 532 567 562 q 630 448 588 510 q 672 301 672 387 q 646 171 672 232 q 575 71 621 111 q 474 16 530 33 q 314 0 417 0 l 86 0 l 86 987 l 298 987 z "},"C":{"ha":1044,"x_min":41,"x_max":985,"o":"m 985 248 q 807 49 920 118 q 543 -20 693 -20 q 338 23 432 -20 q 170 150 244 66 q 74 309 106 220 q 41 500 41 398 q 81 695 41 603 q 196 864 120 788 q 356 971 268 935 q 545 1007 444 1007 q 811 935 696 1007 q 985 732 926 863 l 817 732 q 700 831 769 798 q 543 864 631 864 q 410 838 473 864 q 298 761 347 811 q 219 640 248 709 q 191 498 191 570 q 216 352 191 421 q 290 233 242 283 q 408 151 341 180 q 543 122 474 122 q 696 154 628 122 q 808 248 764 186 l 985 248 z "},"D":{"ha":939,"x_min":79,"x_max":893,"o":"m 218 132 l 392 132 q 653 228 557 132 q 749 489 749 324 q 647 756 749 660 q 366 852 545 852 l 218 852 l 218 132 m 357 0 l 79 0 l 79 987 l 397 987 q 756 850 620 987 q 893 490 893 712 q 842 260 893 364 q 694 87 791 157 q 555 20 629 41 q 357 0 481 0 z "},"E":{"ha":688,"x_min":86,"x_max":599,"o":"m 599 0 l 86 0 l 86 987 l 599 987 l 599 856 l 229 856 l 229 561 l 599 561 l 599 432 l 229 432 l 229 136 l 599 136 l 599 0 z "},"F":{"ha":663,"x_min":83,"x_max":570,"o":"m 83 0 l 83 987 l 570 987 l 570 856 l 225 856 l 225 561 l 570 561 l 570 432 l 225 432 l 225 0 l 83 0 z "},"G":{"ha":1093,"x_min":41,"x_max":1047,"o":"m 436 498 l 1047 498 q 897 124 1037 267 q 543 -20 758 -20 q 338 23 432 -20 q 170 150 244 66 q 74 309 106 220 q 41 500 41 398 q 81 696 41 604 q 196 864 120 789 q 357 971 268 936 q 554 1007 446 1007 q 817 937 704 1007 q 987 737 930 867 l 811 737 q 694 832 762 800 q 543 864 627 864 q 410 838 473 864 q 298 761 347 811 q 219 640 248 709 q 191 498 191 570 q 216 352 191 421 q 290 233 242 283 q 408 151 341 180 q 543 122 474 122 q 742 182 656 122 q 884 359 828 242 l 436 359 l 436 498 z "},"H":{"ha":861,"x_min":86,"x_max":775,"o":"m 229 0 l 86 0 l 86 987 l 229 987 l 229 568 l 632 568 l 632 987 l 775 987 l 775 0 l 632 0 l 632 428 l 229 428 l 229 0 z "},"I":{"ha":315,"x_min":86,"x_max":229,"o":"m 229 0 l 86 0 l 86 987 l 229 987 l 229 0 z "},"J":{"ha":614,"x_min":3,"x_max":534,"o":"m 534 339 q 525 185 534 235 q 492 100 515 136 q 395 11 455 42 q 257 -20 334 -20 q 73 46 141 -20 q 3 223 5 111 l 144 224 q 180 141 151 169 q 260 114 209 114 q 363 158 334 114 q 392 358 392 203 l 392 987 l 534 987 l 534 339 z "},"K":{"ha":758,"x_min":86,"x_max":779,"o":"m 235 490 l 607 987 l 779 987 l 396 497 l 770 0 l 590 0 l 235 490 m 229 0 l 86 0 l 86 987 l 229 987 l 229 0 z "},"L":{"ha":582,"x_min":86,"x_max":553,"o":"m 553 0 l 86 0 l 86 987 l 229 987 l 229 136 l 553 136 l 553 0 z "},"M":{"ha":1169,"x_min":86,"x_max":1080,"o":"m 224 0 l 86 0 l 86 987 l 298 987 l 585 224 l 871 987 l 1080 987 l 1080 0 l 946 0 l 956 857 l 635 0 l 533 0 l 214 857 l 224 0 z "},"N":{"ha":939,"x_min":86,"x_max":852,"o":"m 229 0 l 86 0 l 86 987 l 233 987 l 718 240 l 711 987 l 852 987 l 852 0 l 715 0 l 220 770 l 229 0 z "},"O":{"ha":1093,"x_min":41,"x_max":1050,"o":"m 191 498 q 216 352 191 421 q 290 233 242 283 q 408 151 341 180 q 543 122 474 122 q 800 231 696 122 q 903 501 903 340 q 878 632 903 570 q 806 746 853 694 q 685 835 749 806 q 543 864 621 864 q 410 838 473 864 q 298 761 347 811 q 219 640 248 709 q 191 498 191 570 m 41 500 q 81 696 41 604 q 196 864 120 789 q 356 971 268 935 q 545 1007 444 1007 q 737 971 648 1007 q 899 863 825 935 q 1012 697 974 789 q 1050 500 1050 606 q 1017 306 1050 395 q 920 147 985 218 q 748 22 843 64 q 543 -20 654 -20 q 338 23 432 -20 q 170 150 244 66 q 74 309 106 220 q 41 500 41 398 z "},"P":{"ha":714,"x_min":86,"x_max":686,"o":"m 228 529 l 332 529 q 492 568 442 529 q 542 690 542 606 q 491 815 542 774 q 336 856 441 856 l 228 856 l 228 529 m 228 0 l 86 0 l 86 987 l 315 987 q 463 978 412 987 q 551 946 513 968 q 650 843 613 910 q 686 699 686 777 q 593 479 686 561 q 342 397 500 397 l 228 397 l 228 0 z "},"Q":{"ha":1093,"x_min":41,"x_max":1060,"o":"m 800 233 q 878 357 854 294 q 903 501 903 420 q 878 632 903 570 q 806 746 853 695 q 686 835 750 806 q 543 864 622 864 q 410 838 473 864 q 298 761 347 811 q 217 638 245 707 q 189 493 189 568 q 193 444 189 470 q 204 390 197 418 q 276 415 237 407 q 367 422 315 422 q 589 374 477 422 q 800 233 701 325 m 692 153 q 529 259 616 222 q 351 296 441 296 q 301 292 326 296 q 254 281 277 288 q 385 163 307 205 q 551 122 462 122 q 618 130 584 122 q 692 153 653 137 m 819 61 q 689 1 758 21 q 545 -20 620 -20 q 378 8 458 -20 q 232 89 298 36 q 91 269 140 163 q 41 500 41 375 q 81 695 41 603 q 196 864 120 788 q 356 971 268 935 q 545 1007 444 1007 q 737 971 648 1007 q 899 863 825 935 q 1013 693 975 787 q 1051 488 1051 599 q 1021 309 1051 391 q 928 155 990 227 q 982 137 954 143 q 1042 131 1010 131 l 1060 131 l 1060 -7 l 1047 -7 q 935 10 992 -7 q 819 61 878 27 z "},"R":{"ha":785,"x_min":86,"x_max":736,"o":"m 229 475 l 302 475 q 524 523 451 475 q 596 669 596 571 q 534 810 596 765 q 336 854 471 854 l 229 854 l 229 475 m 229 0 l 86 0 l 86 987 l 371 987 q 642 905 549 987 q 736 668 736 823 q 657 466 736 547 q 456 379 579 385 l 736 0 l 557 0 l 229 458 l 229 0 z "},"S":{"ha":660,"x_min":33,"x_max":616,"o":"m 34 285 l 162 285 q 208 162 165 208 q 317 117 250 117 q 435 162 391 117 q 479 285 479 208 q 447 389 479 352 q 311 457 414 425 q 292 462 305 458 q 113 571 168 495 q 75 642 87 604 q 62 722 62 680 q 138 927 62 849 q 335 1006 213 1006 q 518 936 448 1006 q 595 743 587 865 l 461 743 q 421 839 458 802 q 330 875 385 875 q 234 834 271 875 q 197 730 197 794 q 204 688 197 708 q 225 652 211 669 q 350 592 254 617 q 418 572 394 581 q 566 466 515 536 q 616 298 616 396 q 535 68 616 155 q 319 -20 454 -20 q 114 64 193 -20 q 34 285 35 148 z "},"T":{"ha":533,"x_min":11,"x_max":524,"o":"m 339 0 l 196 0 l 196 854 l 11 854 l 11 987 l 524 987 l 524 854 l 339 854 l 339 0 z "},"U":{"ha":785,"x_min":77,"x_max":707,"o":"m 77 987 l 220 987 l 220 359 q 260 173 220 225 q 396 121 300 121 q 526 174 488 121 q 564 359 564 227 l 564 987 l 707 987 l 707 361 q 695 207 707 260 q 659 114 684 153 q 550 13 614 46 q 399 -20 486 -20 q 239 12 304 -20 q 126 113 174 44 q 88 201 100 152 q 77 361 77 250 l 77 987 z "},"V":{"ha":787,"x_min":-29,"x_max":815,"o":"m 436 0 l 351 0 l -29 987 l 122 987 l 393 252 l 665 987 l 815 987 l 436 0 z "},"W":{"ha":1171,"x_min":-21,"x_max":1190,"o":"m -21 987 l 125 987 l 339 227 l 532 987 l 639 987 l 831 227 l 1044 987 l 1190 987 l 892 0 l 762 0 l 585 737 l 406 0 l 278 0 l -21 987 z "},"X":{"ha":814,"x_min":-4,"x_max":817,"o":"m 407 386 l 161 0 l -4 0 l 325 498 l 4 987 l 171 987 l 407 606 l 640 987 l 810 987 l 489 498 l 817 0 l 650 0 l 407 386 z "},"Y":{"ha":685,"x_min":-33,"x_max":718,"o":"m 412 355 l 412 0 l 269 0 l 269 364 l -33 987 l 126 987 l 343 513 l 559 987 l 718 987 l 412 355 z "},"Z":{"ha":660,"x_min":26,"x_max":632,"o":"m 632 0 l 26 0 l 26 140 l 458 848 l 54 848 l 54 987 l 624 987 l 624 863 l 176 136 l 632 136 l 632 0 z "},"[":{"ha":386,"x_min":85,"x_max":346,"o":"m 346 -171 l 346 -281 l 85 -281 l 85 987 l 346 987 l 346 879 l 215 879 l 215 -171 l 346 -171 z "},"\\":{"ha":386,"x_min":0,"x_max":425,"o":"m 325 -129 l 0 1007 l 100 1007 l 425 -129 l 325 -129 z "},"]":{"ha":386,"x_min":40,"x_max":301,"o":"m 301 -281 l 40 -281 l 40 -171 l 170 -171 l 170 879 l 40 879 l 40 987 l 301 987 l 301 -281 z "},"^":{"ha":1389,"x_min":285,"x_max":1103,"o":"m 757 989 l 1103 611 l 981 611 l 694 896 l 407 611 l 285 611 l 631 989 l 757 989 z "},"_":{"ha":694,"x_min":0,"x_max":694,"o":"m 694 -231 l 694 -328 l 0 -328 l 0 -231 l 694 -231 z "},"`":{"ha":694,"x_min":170,"x_max":444,"o":"m 444 842 l 363 842 l 170 1078 l 306 1078 l 444 842 z "},"a":{"ha":895,"x_min":41,"x_max":818,"o":"m 180 378 q 255 188 180 264 q 439 111 330 111 q 613 188 538 111 q 689 368 689 265 q 614 556 689 478 q 436 635 539 635 q 255 560 330 635 q 180 378 180 486 m 682 0 l 682 92 q 567 11 631 38 q 432 -17 504 -17 q 153 95 264 -17 q 41 376 41 208 q 69 526 41 455 q 149 650 97 596 q 272 737 205 709 q 424 765 338 765 q 565 738 500 765 q 682 656 629 711 l 682 746 l 818 746 l 818 0 l 682 0 z "},"b":{"ha":895,"x_min":75,"x_max":852,"o":"m 205 368 q 281 188 205 265 q 456 111 357 111 q 638 188 564 111 q 713 378 713 264 q 637 560 713 485 q 457 635 562 635 q 280 557 354 635 q 205 368 205 479 m 211 92 l 211 0 l 75 0 l 75 987 l 210 987 l 210 656 q 329 738 264 711 q 469 765 393 765 q 622 737 555 765 q 745 650 688 709 q 825 525 797 595 q 852 376 852 454 q 741 95 852 208 q 461 -17 630 -17 q 326 11 389 -17 q 211 92 262 38 z "},"c":{"ha":842,"x_min":39,"x_max":787,"o":"m 787 254 q 648 50 741 119 q 424 -20 556 -20 q 273 9 340 -20 q 150 96 205 38 q 68 223 98 151 q 39 372 39 296 q 65 518 39 450 q 144 643 92 587 q 274 736 202 705 q 428 768 346 768 q 650 697 556 768 q 787 498 745 627 l 640 498 q 549 601 605 567 q 416 635 494 635 q 247 559 317 635 q 178 374 178 484 q 248 187 178 262 q 424 113 319 113 q 551 150 494 113 q 640 254 608 186 l 787 254 z "},"d":{"ha":895,"x_min":41,"x_max":818,"o":"m 180 378 q 255 188 180 264 q 439 111 330 111 q 613 188 538 111 q 689 368 689 265 q 614 556 689 478 q 436 635 539 635 q 255 560 330 635 q 180 378 180 486 m 682 0 l 682 92 q 567 11 631 38 q 432 -17 504 -17 q 153 95 264 -17 q 41 376 41 208 q 69 526 41 455 q 149 650 97 596 q 272 737 205 709 q 424 765 338 765 q 565 738 500 765 q 684 656 629 711 l 684 987 l 818 987 l 818 0 l 682 0 z "},"e":{"ha":844,"x_min":37,"x_max":807,"o":"m 660 444 q 573 587 635 536 q 425 637 511 637 q 272 586 337 637 q 183 444 208 534 l 660 444 m 179 323 q 263 172 196 230 q 424 114 331 114 q 545 146 490 114 q 632 236 600 178 l 783 236 q 639 46 732 112 q 424 -20 547 -20 q 273 9 341 -20 q 149 97 204 39 q 67 225 96 152 q 37 374 37 298 q 64 521 37 452 q 143 646 91 589 q 269 738 199 707 q 421 768 338 768 q 604 723 519 768 q 743 595 688 677 q 791 483 776 544 q 807 345 807 422 l 807 323 l 179 323 z "},"f":{"ha":386,"x_min":28,"x_max":367,"o":"m 250 0 l 117 0 l 117 629 l 28 629 l 28 746 l 113 746 l 113 768 q 176 941 113 883 q 367 999 240 999 l 367 875 l 355 875 q 270 848 296 875 q 244 757 244 821 l 244 746 l 367 746 l 367 629 l 250 629 l 250 0 z "},"g":{"ha":895,"x_min":41,"x_max":818,"o":"m 90 -60 l 233 -60 q 315 -139 264 -112 q 431 -167 366 -167 q 613 -99 544 -167 q 682 82 682 -31 l 682 92 q 567 11 631 38 q 432 -17 504 -17 q 153 95 264 -17 q 41 376 41 208 q 69 526 41 455 q 149 650 97 596 q 272 737 205 709 q 424 765 338 765 q 565 738 500 765 q 684 656 629 711 l 684 746 l 818 746 l 818 123 q 717 -181 818 -71 q 439 -292 616 -292 q 220 -231 311 -292 q 90 -60 129 -170 m 180 378 q 255 188 180 264 q 439 111 330 111 q 613 188 538 111 q 689 368 689 265 q 614 556 689 478 q 436 635 539 635 q 255 560 330 635 q 180 378 180 486 z "},"h":{"ha":785,"x_min":79,"x_max":705,"o":"m 214 0 l 79 0 l 79 987 l 214 987 l 214 661 q 298 734 246 709 q 419 758 350 758 q 630 671 555 758 q 705 428 705 585 l 705 0 l 571 0 l 571 385 q 529 569 571 509 q 400 629 487 629 q 307 605 347 629 q 241 534 266 581 q 220 467 227 507 q 214 339 214 427 l 214 0 z "},"i":{"ha":293,"x_min":79,"x_max":212,"o":"m 212 833 l 79 833 l 79 987 l 212 987 l 212 833 m 79 0 l 79 746 l 212 746 l 212 0 l 79 0 z "},"j":{"ha":309,"x_min":-4,"x_max":221,"o":"m 221 -7 q 175 -188 221 -134 q 25 -241 130 -241 q 11 -241 20 -241 q -4 -240 1 -240 l -4 -109 q 69 -90 50 -109 q 87 0 87 -71 l 87 39 l 87 746 l 221 746 l 221 -7 m 221 833 l 87 833 l 87 987 l 221 987 l 221 833 z "},"k":{"ha":663,"x_min":79,"x_max":685,"o":"m 79 0 l 79 987 l 212 987 l 212 400 l 478 746 l 635 746 l 361 392 l 685 0 l 513 0 l 212 379 l 212 0 l 79 0 z "},"l":{"ha":293,"x_min":79,"x_max":212,"o":"m 79 0 l 79 987 l 212 987 l 212 0 l 79 0 z "},"m":{"ha":1206,"x_min":81,"x_max":1125,"o":"m 539 376 q 500 574 539 513 q 378 636 462 636 q 250 574 291 636 q 208 382 208 512 l 208 0 l 81 0 l 81 746 l 200 746 l 200 659 q 284 733 237 709 q 392 758 332 758 q 528 727 473 758 q 616 629 582 696 q 708 726 651 694 q 847 758 765 758 q 1049 676 973 758 q 1125 456 1125 593 l 1125 0 l 990 0 l 990 435 q 948 583 990 530 q 832 636 907 636 q 707 580 745 636 q 669 390 669 524 l 669 0 l 539 0 l 539 376 z "},"n":{"ha":798,"x_min":79,"x_max":720,"o":"m 214 0 l 79 0 l 79 746 l 208 746 l 208 661 q 301 735 250 711 q 416 758 351 758 q 641 672 563 758 q 720 425 720 586 l 720 0 l 585 0 l 585 396 q 541 572 585 515 q 404 629 496 629 q 259 562 304 629 q 214 339 214 494 l 214 0 z "},"o":{"ha":842,"x_min":36,"x_max":806,"o":"m 175 374 q 246 187 175 262 q 422 113 317 113 q 596 188 526 113 q 667 375 667 262 q 596 562 667 488 q 421 636 526 636 q 246 561 317 636 q 175 374 175 486 m 36 372 q 63 520 36 452 q 142 644 90 589 q 269 737 198 705 q 415 770 339 770 q 566 741 496 770 q 692 654 635 711 q 776 528 747 598 q 806 382 806 457 q 778 233 806 305 q 701 106 751 160 q 573 11 644 43 q 422 -21 503 -21 q 271 8 340 -21 q 147 96 202 38 q 65 223 95 151 q 36 372 36 296 z "},"p":{"ha":895,"x_min":75,"x_max":852,"o":"m 205 378 q 280 189 205 267 q 457 111 354 111 q 637 186 562 111 q 713 368 713 261 q 638 558 713 481 q 456 635 564 635 q 281 558 357 635 q 205 378 205 481 m 210 90 l 210 -241 l 75 -241 l 75 746 l 211 746 l 211 654 q 326 735 262 707 q 461 762 389 762 q 741 650 630 762 q 852 370 852 538 q 825 221 852 292 q 745 96 797 151 q 622 8 688 37 q 469 -20 555 -20 q 329 8 393 -20 q 210 90 264 35 z "},"q":{"ha":895,"x_min":41,"x_max":819,"o":"m 439 635 q 256 558 331 635 q 182 368 182 481 q 257 186 182 260 q 437 111 332 111 q 615 189 541 111 q 689 378 689 267 q 613 558 689 481 q 439 635 538 635 m 819 -241 l 684 -241 l 684 90 q 566 8 631 35 q 425 -20 502 -20 q 273 8 340 -20 q 150 96 206 37 q 70 221 98 151 q 41 370 41 292 q 153 650 41 538 q 433 762 264 762 q 569 735 505 762 q 684 654 632 707 l 684 746 l 819 746 l 819 -241 z "},"r":{"ha":401,"x_min":81,"x_max":383,"o":"m 215 0 l 81 0 l 81 746 l 207 746 l 207 660 q 283 733 240 709 q 383 758 326 758 l 383 618 q 254 565 293 611 q 215 415 215 518 l 215 0 z "},"s":{"ha":541,"x_min":28,"x_max":504,"o":"m 28 241 l 154 241 q 187 144 154 182 q 269 106 220 106 q 346 135 316 106 q 376 208 376 163 q 355 275 376 248 q 286 321 334 302 q 240 338 270 328 q 139 386 161 368 q 80 458 99 418 q 61 551 61 498 q 124 706 61 642 q 279 770 188 770 q 431 714 375 770 q 493 557 488 658 l 364 557 q 337 621 361 598 q 273 644 313 644 q 213 620 237 644 q 189 558 189 595 q 298 456 189 496 q 346 437 328 444 q 468 351 431 403 q 504 214 504 300 q 436 47 504 113 q 265 -20 368 -20 q 98 50 161 -20 q 28 241 34 120 z "},"t":{"ha":382,"x_min":20,"x_max":364,"o":"m 125 0 l 125 624 l 20 624 l 20 746 l 125 746 l 125 987 l 258 987 l 258 746 l 364 746 l 364 624 l 258 624 l 258 0 l 125 0 z "},"u":{"ha":785,"x_min":75,"x_max":701,"o":"m 701 0 l 572 0 l 572 83 q 483 8 532 33 q 371 -17 433 -17 q 153 71 230 -17 q 75 317 75 158 l 75 746 l 210 746 l 210 355 q 252 174 210 235 q 380 114 295 114 q 475 139 433 114 q 541 210 516 163 q 562 277 555 238 q 568 404 568 317 l 568 746 l 701 746 l 701 0 z "},"v":{"ha":688,"x_min":3,"x_max":686,"o":"m 387 0 l 286 0 l 3 746 l 147 746 l 343 201 l 545 746 l 686 746 l 387 0 z "},"w":{"ha":990,"x_min":8,"x_max":983,"o":"m 494 505 l 342 0 l 267 0 l 8 746 l 151 746 l 304 253 l 456 746 l 538 746 l 688 253 l 842 746 l 983 746 l 724 0 l 648 0 l 494 505 z "},"x":{"ha":633,"x_min":-14,"x_max":637,"o":"m 488 0 l 315 282 l 135 0 l -14 0 l 239 387 l 16 746 l 165 746 l 321 490 l 479 746 l 635 746 l 399 392 l 637 0 l 488 0 z "},"y":{"ha":711,"x_min":4,"x_max":713,"o":"m 4 746 l 149 746 l 350 191 l 568 746 l 713 746 l 311 -241 l 170 -241 l 273 21 l 4 746 z "},"z":{"ha":559,"x_min":14,"x_max":529,"o":"m 529 0 l 14 0 l 14 109 l 374 624 l 57 624 l 57 746 l 509 746 l 509 608 l 172 126 l 529 126 l 529 0 z "},"{":{"ha":694,"x_min":114,"x_max":587,"o":"m 587 900 l 559 900 q 450 870 478 900 q 422 745 422 840 l 422 581 q 392 426 422 472 q 286 359 362 380 q 393 294 363 340 q 422 139 422 248 l 422 -25 q 451 -151 422 -121 q 561 -180 479 -180 l 587 -180 l 587 -281 l 558 -281 q 444 -273 485 -281 q 374 -248 402 -265 q 321 -182 336 -224 q 306 -39 306 -139 l 306 127 q 269 270 306 229 q 143 311 232 311 q 129 311 138 311 q 114 310 119 310 l 114 411 q 130 410 119 411 q 144 410 140 410 q 269 451 233 410 q 306 591 306 492 l 306 758 q 321 901 306 859 q 374 966 336 943 q 447 994 404 985 q 562 1002 490 1002 l 587 1002 l 587 900 z "},"|":{"ha":694,"x_min":297,"x_max":399,"o":"m 399 1061 l 399 -328 l 297 -328 l 297 1061 l 399 1061 z "},"}":{"ha":694,"x_min":109,"x_max":582,"o":"m 390 758 l 390 591 q 427 451 390 492 q 551 410 463 410 q 566 410 556 410 q 582 411 576 411 l 582 310 q 567 311 577 310 q 553 311 557 311 q 427 270 463 311 q 390 127 390 229 l 390 -39 q 375 -182 390 -139 q 322 -248 359 -224 q 252 -273 294 -265 q 138 -281 211 -281 l 109 -281 l 109 -180 l 135 -180 q 245 -150 216 -180 q 273 -24 273 -119 l 273 139 q 303 294 273 248 q 410 359 334 340 q 303 426 334 380 q 273 581 273 472 l 273 745 q 245 870 273 840 q 135 900 216 900 l 109 900 l 109 1002 l 134 1002 q 250 993 206 1002 q 322 966 293 985 q 375 901 359 943 q 390 758 390 859 z "},"~":{"ha":1157,"x_min":121,"x_max":1038,"o":"m 1038 416 q 903 344 967 368 q 774 321 838 321 q 600 360 711 321 q 577 368 585 366 q 567 372 574 370 q 382 412 448 412 q 263 387 325 412 q 121 306 201 362 l 121 411 q 258 484 193 460 q 383 509 323 509 q 470 499 425 509 q 581 467 514 490 q 612 455 591 463 q 775 416 720 416 q 897 441 835 416 q 1038 522 959 467 l 1038 416 z "},"Ä":{"ha":836,"x_min":-43,"x_max":868,"o":"m 551 427 l 412 802 l 271 427 l 551 427 m 220 288 l 109 0 l -43 0 l 343 987 l 482 987 l 868 0 l 711 0 l 603 288 l 220 288 m 471 1119 l 471 1261 l 595 1261 l 595 1119 l 471 1119 m 229 1119 l 229 1261 l 354 1261 l 354 1119 l 229 1119 z "},"Å":{"ha":836,"x_min":-43,"x_max":868,"o":"m 329 1181 q 352 1123 329 1147 q 408 1100 375 1100 q 466 1124 442 1100 q 490 1181 490 1147 q 466 1238 490 1213 q 408 1263 441 1263 q 353 1238 376 1263 q 329 1181 329 1214 m 249 1179 q 295 1291 249 1245 q 407 1337 341 1337 q 519 1291 473 1337 q 566 1179 566 1245 q 519 1067 566 1114 q 407 1021 473 1021 q 295 1067 340 1021 q 249 1179 249 1113 m 551 427 l 411 802 l 271 427 l 551 427 m 220 288 l 109 0 l -43 0 l 342 982 l 482 982 l 868 0 l 708 0 l 603 288 l 220 288 z "},"Ç":{"ha":1044,"x_min":41,"x_max":985,"o":"m 985 248 q 807 49 920 118 q 543 -20 693 -20 q 338 23 432 -20 q 170 150 244 66 q 74 309 106 220 q 41 500 41 398 q 81 695 41 603 q 196 864 120 788 q 356 971 268 935 q 545 1007 444 1007 q 811 935 696 1007 q 985 732 926 863 l 817 732 q 700 831 769 798 q 543 864 631 864 q 410 838 473 864 q 298 761 347 811 q 219 640 248 709 q 191 498 191 570 q 216 352 191 421 q 290 233 242 283 q 408 151 341 180 q 543 122 474 122 q 696 154 628 122 q 808 248 764 186 l 985 248 m 363 -289 l 363 -221 q 460 -240 416 -233 q 530 -248 503 -248 q 591 -234 570 -248 q 612 -192 612 -220 q 590 -148 612 -162 q 521 -134 568 -134 q 500 -134 507 -134 q 485 -134 492 -134 l 485 0 l 536 0 l 536 -69 l 556 -69 q 669 -100 630 -69 q 707 -192 707 -132 q 664 -287 707 -254 q 538 -319 621 -319 q 459 -312 504 -319 q 363 -289 415 -304 z "},"É":{"ha":688,"x_min":86,"x_max":599,"o":"m 599 0 l 86 0 l 86 987 l 599 987 l 599 856 l 229 856 l 229 561 l 599 561 l 599 432 l 229 432 l 229 136 l 599 136 l 599 0 m 245 1079 l 383 1315 l 519 1315 l 326 1079 l 245 1079 z "},"Ñ":{"ha":939,"x_min":86,"x_max":852,"o":"m 229 0 l 86 0 l 86 987 l 233 987 l 718 240 l 711 987 l 852 987 l 852 0 l 715 0 l 220 770 l 229 0 m 668 1267 q 620 1162 654 1198 q 534 1126 586 1126 q 514 1128 525 1126 q 490 1133 503 1130 l 425 1152 q 407 1156 416 1154 q 391 1157 399 1157 q 355 1145 370 1157 q 330 1109 340 1133 l 271 1109 q 317 1214 283 1177 q 401 1250 351 1250 q 423 1249 413 1250 q 441 1244 433 1247 l 509 1225 q 528 1221 519 1222 q 545 1219 536 1219 q 583 1231 567 1219 q 608 1267 599 1242 l 668 1267 z "},"Ö":{"ha":1093,"x_min":41,"x_max":1050,"o":"m 191 498 q 216 352 191 421 q 290 233 242 283 q 408 151 341 180 q 543 122 474 122 q 800 231 696 122 q 903 501 903 340 q 878 632 903 570 q 806 746 853 694 q 685 835 749 806 q 543 864 621 864 q 410 838 473 864 q 298 761 347 811 q 219 640 248 709 q 191 498 191 570 m 41 500 q 81 696 41 604 q 196 864 120 789 q 356 971 268 935 q 545 1007 444 1007 q 737 971 648 1007 q 899 863 825 935 q 1012 697 974 789 q 1050 500 1050 606 q 1017 306 1050 395 q 920 147 985 218 q 748 22 843 64 q 543 -20 654 -20 q 338 23 432 -20 q 170 150 244 66 q 74 309 106 220 q 41 500 41 398 m 606 1119 l 606 1261 l 730 1261 l 730 1119 l 606 1119 m 364 1119 l 364 1261 l 489 1261 l 489 1119 l 364 1119 z "},"Ü":{"ha":785,"x_min":77,"x_max":707,"o":"m 77 987 l 220 987 l 220 359 q 260 173 220 225 q 396 121 300 121 q 526 174 488 121 q 564 359 564 227 l 564 987 l 707 987 l 707 361 q 695 207 707 260 q 659 114 684 153 q 550 13 614 46 q 399 -20 486 -20 q 239 12 304 -20 q 126 113 174 44 q 88 201 100 152 q 77 361 77 250 l 77 987 m 452 1119 l 452 1261 l 576 1261 l 576 1119 l 452 1119 m 210 1119 l 210 1261 l 335 1261 l 335 1119 l 210 1119 z "},"á":{"ha":895,"x_min":41,"x_max":818,"o":"m 180 378 q 255 188 180 264 q 439 111 330 111 q 613 188 538 111 q 689 368 689 265 q 614 556 689 478 q 436 635 539 635 q 255 560 330 635 q 180 378 180 486 m 682 0 l 682 92 q 567 11 631 38 q 432 -17 504 -17 q 153 95 264 -17 q 41 376 41 208 q 69 526 41 455 q 149 650 97 596 q 272 737 205 709 q 424 765 338 765 q 565 738 500 765 q 682 656 629 711 l 682 746 l 818 746 l 818 0 l 682 0 m 384 842 l 522 1078 l 659 1078 l 465 842 l 384 842 z "},"à":{"ha":895,"x_min":41,"x_max":818,"o":"m 180 378 q 255 188 180 264 q 439 111 330 111 q 613 188 538 111 q 689 368 689 265 q 614 556 689 478 q 436 635 539 635 q 255 560 330 635 q 180 378 180 486 m 682 0 l 682 92 q 567 11 631 38 q 432 -17 504 -17 q 153 95 264 -17 q 41 376 41 208 q 69 526 41 455 q 149 650 97 596 q 272 737 205 709 q 424 765 338 765 q 565 738 500 765 q 682 656 629 711 l 682 746 l 818 746 l 818 0 l 682 0 m 578 842 l 496 842 l 303 1078 l 439 1078 l 578 842 z "},"â":{"ha":895,"x_min":41,"x_max":818,"o":"m 180 378 q 255 188 180 264 q 439 111 330 111 q 613 188 538 111 q 689 368 689 265 q 614 556 689 478 q 436 635 539 635 q 255 560 330 635 q 180 378 180 486 m 682 0 l 682 92 q 567 11 631 38 q 432 -17 504 -17 q 153 95 264 -17 q 41 376 41 208 q 69 526 41 455 q 149 650 97 596 q 272 737 205 709 q 424 765 338 765 q 565 738 500 765 q 682 656 629 711 l 682 746 l 818 746 l 818 0 l 682 0 m 281 842 l 414 1078 l 547 1078 l 681 842 l 597 842 l 481 997 l 363 842 l 281 842 z "},"ä":{"ha":895,"x_min":41,"x_max":818,"o":"m 180 378 q 255 188 180 264 q 439 111 330 111 q 613 188 538 111 q 689 368 689 265 q 614 556 689 478 q 436 635 539 635 q 255 560 330 635 q 180 378 180 486 m 682 0 l 682 92 q 567 11 631 38 q 432 -17 504 -17 q 153 95 264 -17 q 41 376 41 208 q 69 526 41 455 q 149 650 97 596 q 272 737 205 709 q 424 765 338 765 q 565 738 500 765 q 682 656 629 711 l 682 746 l 818 746 l 818 0 l 682 0 m 539 882 l 539 1023 l 664 1023 l 664 882 l 539 882 m 298 882 l 298 1023 l 422 1023 l 422 882 l 298 882 z "},"ã":{"ha":895,"x_min":41,"x_max":818,"o":"m 180 378 q 255 188 180 264 q 439 111 330 111 q 613 188 538 111 q 689 368 689 265 q 614 556 689 478 q 436 635 539 635 q 255 560 330 635 q 180 378 180 486 m 682 0 l 682 92 q 567 11 631 38 q 432 -17 504 -17 q 153 95 264 -17 q 41 376 41 208 q 69 526 41 455 q 149 650 97 596 q 272 737 205 709 q 424 765 338 765 q 565 738 500 765 q 682 656 629 711 l 682 746 l 818 746 l 818 0 l 682 0 m 680 1029 q 632 925 666 961 q 546 889 597 889 q 525 891 536 889 q 502 896 514 892 l 436 914 q 419 918 427 917 q 403 920 410 920 q 367 908 382 920 q 342 872 351 896 l 282 872 q 328 976 294 940 q 413 1013 362 1013 q 435 1011 425 1013 q 453 1007 445 1010 l 520 987 q 539 983 530 985 q 556 982 548 982 q 594 994 578 982 q 620 1029 610 1005 l 680 1029 z "},"å":{"ha":895,"x_min":41,"x_max":818,"o":"m 404 964 q 428 907 404 930 q 485 884 452 884 q 542 907 518 884 q 566 964 566 930 q 542 1020 566 996 q 485 1044 517 1044 q 428 1021 452 1044 q 404 964 404 997 m 325 961 q 371 1074 325 1027 q 484 1120 417 1120 q 595 1073 549 1120 q 642 961 642 1027 q 595 850 642 896 q 484 804 549 804 q 371 850 417 804 q 325 961 325 895 m 180 378 q 255 188 180 264 q 439 111 330 111 q 613 188 538 111 q 689 368 689 265 q 614 556 689 478 q 436 635 539 635 q 255 560 330 635 q 180 378 180 486 m 682 0 l 682 92 q 567 11 631 38 q 432 -17 504 -17 q 153 95 264 -17 q 41 376 41 208 q 69 526 41 455 q 149 650 97 596 q 272 737 205 709 q 424 765 338 765 q 565 738 500 765 q 682 656 629 711 l 682 746 l 818 746 l 818 0 l 682 0 z "},"ç":{"ha":842,"x_min":39,"x_max":787,"o":"m 787 254 q 648 50 741 119 q 424 -20 556 -20 q 273 9 340 -20 q 150 96 205 38 q 68 223 98 151 q 39 372 39 296 q 65 518 39 450 q 144 643 92 587 q 274 736 202 705 q 428 768 346 768 q 650 697 556 768 q 787 498 745 627 l 640 498 q 549 601 605 567 q 416 635 494 635 q 247 559 317 635 q 178 374 178 484 q 248 187 178 262 q 424 113 319 113 q 551 150 494 113 q 640 254 608 186 l 787 254 m 248 -289 l 248 -221 q 345 -240 301 -233 q 414 -248 388 -248 q 476 -234 455 -248 q 496 -192 496 -220 q 474 -148 496 -162 q 406 -134 452 -134 q 385 -134 392 -134 q 370 -134 377 -134 l 370 0 l 421 0 l 421 -69 l 441 -69 q 553 -100 515 -69 q 592 -192 592 -132 q 549 -287 592 -254 q 422 -319 505 -319 q 344 -312 389 -319 q 248 -289 300 -304 z "},"é":{"ha":844,"x_min":37,"x_max":807,"o":"m 660 444 q 573 587 635 536 q 425 637 511 637 q 272 586 337 637 q 183 444 208 534 l 660 444 m 179 323 q 263 172 196 230 q 424 114 331 114 q 545 146 490 114 q 632 236 600 178 l 783 236 q 639 46 732 112 q 424 -20 547 -20 q 273 9 341 -20 q 149 97 204 39 q 67 225 96 152 q 37 374 37 298 q 64 521 37 452 q 143 646 91 589 q 269 738 199 707 q 421 768 338 768 q 604 723 519 768 q 743 595 688 677 q 791 483 776 544 q 807 345 807 422 l 807 323 l 179 323 m 332 842 l 471 1078 l 607 1078 l 414 842 l 332 842 z "},"è":{"ha":844,"x_min":37,"x_max":807,"o":"m 660 444 q 573 587 635 536 q 425 637 511 637 q 272 586 337 637 q 183 444 208 534 l 660 444 m 179 323 q 263 172 196 230 q 424 114 331 114 q 545 146 490 114 q 632 236 600 178 l 783 236 q 639 46 732 112 q 424 -20 547 -20 q 273 9 341 -20 q 149 97 204 39 q 67 225 96 152 q 37 374 37 298 q 64 521 37 452 q 143 646 91 589 q 269 738 199 707 q 421 768 338 768 q 604 723 519 768 q 743 595 688 677 q 791 483 776 544 q 807 345 807 422 l 807 323 l 179 323 m 526 842 l 445 842 l 252 1078 l 388 1078 l 526 842 z "},"ê":{"ha":844,"x_min":37,"x_max":807,"o":"m 660 444 q 573 587 635 536 q 425 637 511 637 q 272 586 337 637 q 183 444 208 534 l 660 444 m 179 323 q 263 172 196 230 q 424 114 331 114 q 545 146 490 114 q 632 236 600 178 l 783 236 q 639 46 732 112 q 424 -20 547 -20 q 273 9 341 -20 q 149 97 204 39 q 67 225 96 152 q 37 374 37 298 q 64 521 37 452 q 143 646 91 589 q 269 738 199 707 q 421 768 338 768 q 604 723 519 768 q 743 595 688 677 q 791 483 776 544 q 807 345 807 422 l 807 323 l 179 323 m 229 842 l 363 1078 l 496 1078 l 629 842 l 546 842 l 429 997 l 311 842 l 229 842 z "},"ë":{"ha":844,"x_min":37,"x_max":807,"o":"m 660 444 q 573 587 635 536 q 425 637 511 637 q 272 586 337 637 q 183 444 208 534 l 660 444 m 179 323 q 263 172 196 230 q 424 114 331 114 q 545 146 490 114 q 632 236 600 178 l 783 236 q 639 46 732 112 q 424 -20 547 -20 q 273 9 341 -20 q 149 97 204 39 q 67 225 96 152 q 37 374 37 298 q 64 521 37 452 q 143 646 91 589 q 269 738 199 707 q 421 768 338 768 q 604 723 519 768 q 743 595 688 677 q 791 483 776 544 q 807 345 807 422 l 807 323 l 179 323 m 488 882 l 488 1023 l 612 1023 l 612 882 l 488 882 m 246 882 l 246 1023 l 371 1023 l 371 882 l 246 882 z "},"í":{"ha":293,"x_min":50,"x_max":325,"o":"m 79 0 l 79 746 l 212 746 l 212 0 l 79 0 m 50 842 l 189 1078 l 325 1078 l 132 842 l 50 842 z "},"ì":{"ha":293,"x_min":-31,"x_max":244,"o":"m 79 0 l 79 746 l 212 746 l 212 0 l 79 0 m 244 842 l 163 842 l -31 1078 l 106 1078 l 244 842 z "},"î":{"ha":293,"x_min":-53,"x_max":347,"o":"m 79 0 l 79 746 l 212 746 l 212 0 l 79 0 m -53 842 l 81 1078 l 214 1078 l 347 842 l 264 842 l 147 997 l 29 842 l -53 842 z "},"ï":{"ha":293,"x_min":-36,"x_max":330,"o":"m 79 0 l 79 746 l 212 746 l 212 0 l 79 0 m 205 882 l 205 1023 l 330 1023 l 330 882 l 205 882 m -36 882 l -36 1023 l 89 1023 l 89 882 l -36 882 z "},"ñ":{"ha":798,"x_min":79,"x_max":720,"o":"m 214 0 l 79 0 l 79 746 l 208 746 l 208 661 q 301 735 250 711 q 416 758 351 758 q 641 672 563 758 q 720 425 720 586 l 720 0 l 585 0 l 585 396 q 541 572 585 515 q 404 629 496 629 q 259 562 304 629 q 214 339 214 494 l 214 0 m 606 1029 q 558 925 592 961 q 472 889 524 889 q 451 891 463 889 q 428 896 440 892 l 362 914 q 345 918 353 917 q 329 920 336 920 q 293 908 308 920 q 268 872 277 896 l 208 872 q 254 976 220 940 q 339 1013 288 1013 q 361 1011 351 1013 q 379 1007 371 1010 l 446 987 q 465 983 456 985 q 482 982 474 982 q 520 994 505 982 q 546 1029 536 1005 l 606 1029 z "},"ó":{"ha":842,"x_min":36,"x_max":806,"o":"m 175 374 q 246 187 175 262 q 422 113 317 113 q 596 188 526 113 q 667 375 667 262 q 596 562 667 488 q 421 636 526 636 q 246 561 317 636 q 175 374 175 486 m 36 372 q 63 520 36 452 q 142 644 90 589 q 269 737 198 705 q 415 770 339 770 q 566 741 496 770 q 692 654 635 711 q 776 528 747 598 q 806 382 806 457 q 778 233 806 305 q 701 106 751 160 q 573 11 644 43 q 422 -21 503 -21 q 271 8 340 -21 q 147 96 202 38 q 65 223 95 151 q 36 372 36 296 m 327 842 l 465 1078 l 602 1078 l 408 842 l 327 842 z "},"ò":{"ha":842,"x_min":36,"x_max":806,"o":"m 175 374 q 246 187 175 262 q 422 113 317 113 q 596 188 526 113 q 667 375 667 262 q 596 562 667 488 q 421 636 526 636 q 246 561 317 636 q 175 374 175 486 m 36 372 q 63 520 36 452 q 142 644 90 589 q 269 737 198 705 q 415 770 339 770 q 566 741 496 770 q 692 654 635 711 q 776 528 747 598 q 806 382 806 457 q 778 233 806 305 q 701 106 751 160 q 573 11 644 43 q 422 -21 503 -21 q 271 8 340 -21 q 147 96 202 38 q 65 223 95 151 q 36 372 36 296 m 521 842 l 439 842 l 246 1078 l 382 1078 l 521 842 z "},"ô":{"ha":842,"x_min":36,"x_max":806,"o":"m 175 374 q 246 187 175 262 q 422 113 317 113 q 596 188 526 113 q 667 375 667 262 q 596 562 667 488 q 421 636 526 636 q 246 561 317 636 q 175 374 175 486 m 36 372 q 63 520 36 452 q 142 644 90 589 q 269 737 198 705 q 415 770 339 770 q 566 741 496 770 q 692 654 635 711 q 776 528 747 598 q 806 382 806 457 q 778 233 806 305 q 701 106 751 160 q 573 11 644 43 q 422 -21 503 -21 q 271 8 340 -21 q 147 96 202 38 q 65 223 95 151 q 36 372 36 296 m 224 842 l 357 1078 l 490 1078 l 624 842 l 541 842 l 424 997 l 306 842 l 224 842 z "},"ö":{"ha":842,"x_min":36,"x_max":806,"o":"m 175 374 q 246 187 175 262 q 422 113 317 113 q 596 188 526 113 q 667 375 667 262 q 596 562 667 488 q 421 636 526 636 q 246 561 317 636 q 175 374 175 486 m 36 372 q 63 520 36 452 q 142 644 90 589 q 269 737 198 705 q 415 770 339 770 q 566 741 496 770 q 692 654 635 711 q 776 528 747 598 q 806 382 806 457 q 778 233 806 305 q 701 106 751 160 q 573 11 644 43 q 422 -21 503 -21 q 271 8 340 -21 q 147 96 202 38 q 65 223 95 151 q 36 372 36 296 m 482 882 l 482 1023 l 607 1023 l 607 882 l 482 882 m 241 882 l 241 1023 l 366 1023 l 366 882 l 241 882 z "},"õ":{"ha":842,"x_min":36,"x_max":806,"o":"m 175 374 q 246 187 175 262 q 422 113 317 113 q 596 188 526 113 q 667 375 667 262 q 596 562 667 488 q 421 636 526 636 q 246 561 317 636 q 175 374 175 486 m 36 372 q 63 520 36 452 q 142 644 90 589 q 269 737 198 705 q 415 770 339 770 q 566 741 496 770 q 692 654 635 711 q 776 528 747 598 q 806 382 806 457 q 778 233 806 305 q 701 106 751 160 q 573 11 644 43 q 422 -21 503 -21 q 271 8 340 -21 q 147 96 202 38 q 65 223 95 151 q 36 372 36 296 m 623 1029 q 575 925 609 961 q 489 889 541 889 q 468 891 479 889 q 445 896 457 892 l 379 914 q 362 918 370 917 q 346 920 353 920 q 310 908 325 920 q 285 872 294 896 l 225 872 q 271 976 237 940 q 356 1013 305 1013 q 378 1011 368 1013 q 396 1007 388 1010 l 463 987 q 482 983 473 985 q 499 982 491 982 q 537 994 522 982 q 563 1029 553 1005 l 623 1029 z "},"ú":{"ha":785,"x_min":75,"x_max":701,"o":"m 701 0 l 572 0 l 572 83 q 483 8 532 33 q 371 -17 433 -17 q 153 71 230 -17 q 75 317 75 158 l 75 746 l 210 746 l 210 355 q 252 174 210 235 q 380 114 295 114 q 475 139 433 114 q 541 210 516 163 q 562 277 555 238 q 568 404 568 317 l 568 746 l 701 746 l 701 0 m 292 842 l 430 1078 l 566 1078 l 373 842 l 292 842 z "},"ù":{"ha":785,"x_min":75,"x_max":701,"o":"m 701 0 l 572 0 l 572 83 q 483 8 532 33 q 371 -17 433 -17 q 153 71 230 -17 q 75 317 75 158 l 75 746 l 210 746 l 210 355 q 252 174 210 235 q 380 114 295 114 q 475 139 433 114 q 541 210 516 163 q 562 277 555 238 q 568 404 568 317 l 568 746 l 701 746 l 701 0 m 486 842 l 404 842 l 211 1078 l 347 1078 l 486 842 z "},"û":{"ha":785,"x_min":75,"x_max":701,"o":"m 701 0 l 572 0 l 572 83 q 483 8 532 33 q 371 -17 433 -17 q 153 71 230 -17 q 75 317 75 158 l 75 746 l 210 746 l 210 355 q 252 174 210 235 q 380 114 295 114 q 475 139 433 114 q 541 210 516 163 q 562 277 555 238 q 568 404 568 317 l 568 746 l 701 746 l 701 0 m 189 842 l 322 1078 l 455 1078 l 589 842 l 505 842 l 389 997 l 271 842 l 189 842 z "},"ü":{"ha":785,"x_min":75,"x_max":701,"o":"m 701 0 l 572 0 l 572 83 q 483 8 532 33 q 371 -17 433 -17 q 153 71 230 -17 q 75 317 75 158 l 75 746 l 210 746 l 210 355 q 252 174 210 235 q 380 114 295 114 q 475 139 433 114 q 541 210 516 163 q 562 277 555 238 q 568 404 568 317 l 568 746 l 701 746 l 701 0 m 447 882 l 447 1023 l 572 1023 l 572 882 l 447 882 m 205 882 l 205 1023 l 330 1023 l 330 882 l 205 882 z "},"†":{"ha":694,"x_min":40,"x_max":654,"o":"m 281 -158 l 281 603 l 40 603 l 40 720 l 281 720 l 281 987 l 414 987 l 414 720 l 654 720 l 654 603 l 414 603 l 414 -158 l 281 -158 z "},"°":{"ha":457,"x_min":33,"x_max":424,"o":"m 359 793 q 322 886 359 848 q 229 924 284 924 q 136 886 174 924 q 97 793 97 848 q 136 699 97 738 q 229 660 174 660 q 322 699 284 660 q 359 793 359 738 m 229 987 q 367 930 309 987 q 424 791 424 873 q 367 654 424 711 q 228 597 310 597 q 90 654 146 597 q 33 791 33 710 q 91 930 33 873 q 229 987 148 987 z "},"¢":{"ha":794,"x_min":40,"x_max":753,"o":"m 753 372 q 641 186 715 256 q 461 100 566 116 l 461 -56 l 347 -56 l 347 102 q 126 236 212 127 q 40 490 40 346 q 124 745 40 638 q 347 880 208 852 l 347 1023 l 461 1023 l 461 882 q 641 800 566 868 q 753 616 715 732 l 611 616 q 526 720 579 686 q 400 754 473 754 q 238 679 304 754 q 172 490 172 603 q 239 304 172 378 q 407 231 307 231 q 529 268 476 231 q 611 372 583 304 l 753 372 z "},"£":{"ha":794,"x_min":75,"x_max":772,"o":"m 86 -1 l 86 132 l 240 132 q 283 194 269 161 q 297 267 297 227 q 281 353 297 312 q 224 449 264 395 l 75 449 l 75 578 l 149 578 q 126 641 134 611 q 119 700 119 671 q 215 915 119 825 q 446 1004 311 1004 q 642 935 561 1004 q 746 745 722 865 l 600 745 q 539 833 583 801 q 439 865 496 865 q 313 816 361 865 q 265 689 265 767 q 272 636 265 663 q 294 578 279 608 l 599 578 l 599 449 l 382 449 q 421 356 410 396 q 433 277 433 317 q 421 196 433 232 q 383 129 409 160 q 396 127 389 127 q 418 126 404 126 l 440 126 q 586 164 538 126 q 635 278 635 202 q 632 314 635 296 q 625 353 630 333 l 764 353 q 770 315 768 332 q 772 283 772 298 q 738 136 772 202 q 644 36 704 71 q 560 7 610 16 q 385 -1 511 -1 l 361 -1 l 86 -1 z "},"§":{"ha":694,"x_min":54,"x_max":640,"o":"m 446 277 q 497 325 478 296 q 515 383 515 353 q 487 453 515 420 q 395 521 459 486 l 248 602 q 193 555 211 580 q 175 500 175 530 q 198 433 175 462 q 296 363 221 405 l 446 277 m 102 77 l 220 77 l 220 69 q 254 -17 220 14 q 350 -47 288 -47 q 435 -21 404 -47 q 467 50 467 5 q 436 122 467 90 q 314 204 405 155 l 191 271 q 88 356 121 309 q 54 464 54 404 q 84 569 54 521 q 175 659 114 617 q 128 718 144 684 q 113 794 113 752 q 176 948 113 888 q 340 1007 239 1007 q 512 949 450 1007 q 575 790 575 891 l 575 783 l 460 783 q 426 871 458 838 q 340 904 393 904 q 262 879 291 904 q 233 811 233 854 q 260 745 233 774 q 383 665 286 717 l 503 602 q 608 515 576 562 q 640 399 640 467 q 606 287 640 338 q 515 211 571 235 q 568 145 551 181 q 585 64 585 109 q 516 -91 585 -30 q 339 -153 447 -153 q 166 -91 231 -153 q 102 74 102 -29 l 102 77 z "},"•":{"ha":819,"x_min":208,"x_max":610,"o":"m 208 517 q 267 659 208 600 q 410 717 326 717 q 551 658 492 717 q 610 517 610 600 q 550 375 610 434 q 408 315 491 315 q 267 374 325 315 q 208 517 208 433 z "},"¶":{"ha":694,"x_min":45,"x_max":650,"o":"m 650 945 l 568 945 l 568 0 l 493 0 l 493 945 l 374 945 l 374 0 l 297 0 l 297 530 q 113 600 182 536 q 45 766 45 664 q 118 938 45 873 q 311 1003 191 1003 l 650 1003 l 650 945 z "},"ß":{"ha":814,"x_min":78,"x_max":771,"o":"m 208 663 l 208 258 l 315 258 q 371 150 330 189 q 471 110 413 110 q 587 160 537 110 q 636 277 636 210 q 578 407 636 363 q 401 450 519 450 q 380 450 392 450 q 345 448 368 449 l 345 564 l 347 564 q 465 606 422 564 q 507 721 507 648 q 465 831 507 787 q 361 875 423 875 q 244 825 280 875 q 208 663 208 776 m 78 657 q 146 917 78 832 q 357 1002 215 1002 q 564 926 485 1002 q 643 729 643 850 q 620 621 643 667 q 554 553 597 574 q 715 455 660 524 q 771 283 771 386 q 688 67 771 154 q 481 -20 604 -20 q 317 25 386 -20 q 208 158 249 70 l 208 0 l 78 0 l 78 657 z "},"®":{"ha":1157,"x_min":79,"x_max":1079,"o":"m 572 717 l 485 717 l 485 529 l 575 529 q 685 550 652 529 q 718 619 718 572 q 684 694 718 671 q 572 717 649 717 m 591 786 q 769 747 709 786 q 828 631 828 708 q 794 530 828 570 q 699 478 760 490 l 825 220 l 705 220 l 590 461 l 485 461 l 485 220 l 378 220 l 378 786 l 591 786 m 1013 489 q 981 659 1013 580 q 889 799 949 739 q 748 895 827 862 q 579 928 669 928 q 413 896 491 928 q 277 804 335 864 q 179 659 213 740 q 144 493 144 578 q 177 330 144 408 q 272 189 210 252 q 412 93 333 127 q 575 60 491 60 q 742 92 663 60 q 886 187 821 125 q 980 325 947 247 q 1013 489 1013 402 m 578 993 q 772 955 680 993 q 935 844 863 917 q 1042 683 1004 774 q 1079 493 1079 592 q 1042 301 1079 391 q 933 142 1004 211 q 767 32 859 70 q 578 -7 675 -7 q 388 32 478 -7 q 225 143 297 70 q 117 305 154 215 q 79 493 79 395 q 118 685 79 592 q 231 851 157 777 q 388 957 299 921 q 578 993 476 993 z "},"©":{"ha":1157,"x_min":79,"x_max":1079,"o":"m 714 615 q 669 695 705 667 q 575 724 633 724 q 463 662 504 724 q 422 493 422 601 q 465 327 422 387 q 582 268 507 268 q 674 300 637 268 q 721 387 711 332 l 819 387 q 746 244 813 299 q 578 189 680 189 q 384 271 454 189 q 314 497 314 352 q 388 716 314 633 q 582 799 462 799 q 742 748 678 799 q 814 615 806 697 l 714 615 m 1013 493 q 980 660 1013 581 q 888 800 948 739 q 746 895 825 863 q 579 928 667 928 q 414 896 492 928 q 275 803 336 864 q 178 660 212 740 q 144 493 144 579 q 178 329 144 408 q 273 187 211 250 q 414 93 336 125 q 579 60 492 60 q 743 93 664 60 q 888 189 823 126 q 981 327 949 249 q 1013 493 1013 404 m 578 993 q 771 956 681 993 q 933 847 862 919 q 1041 685 1004 777 q 1079 493 1079 593 q 1042 302 1079 392 q 935 143 1005 212 q 768 32 860 71 q 578 -7 676 -7 q 389 31 479 -7 q 227 142 298 69 q 117 303 155 213 q 79 493 79 394 q 117 684 79 593 q 228 848 155 775 q 388 956 298 919 q 578 993 477 993 z "},"™":{"ha":1157,"x_min":164,"x_max":953,"o":"m 653 989 l 755 728 l 851 989 l 953 989 l 953 624 l 886 624 l 886 925 l 774 624 l 736 624 l 618 925 l 618 624 l 551 624 l 551 989 l 653 989 m 471 989 l 471 935 l 354 935 l 354 624 l 281 624 l 281 935 l 164 935 l 164 989 l 471 989 z "},"´":{"ha":694,"x_min":250,"x_max":525,"o":"m 250 842 l 389 1078 l 525 1078 l 332 842 l 250 842 z "},"¨":{"ha":694,"x_min":164,"x_max":530,"o":"m 406 882 l 406 1023 l 530 1023 l 530 882 l 406 882 m 164 882 l 164 1023 l 289 1023 l 289 882 l 164 882 z "},"≠":{"ha":1157,"x_min":172,"x_max":985,"o":"m 890 754 l 764 595 l 985 595 l 985 503 l 703 503 l 564 325 l 985 325 l 985 233 l 504 233 l 335 18 l 264 75 l 389 233 l 172 233 l 172 325 l 449 325 l 587 503 l 172 503 l 172 595 l 648 595 l 819 810 l 890 754 z "},"Æ":{"ha":1166,"x_min":-83,"x_max":1078,"o":"m 566 411 l 566 856 l 543 856 l 301 411 l 566 411 m 566 275 l 225 275 l 75 0 l -83 0 l 464 987 l 1078 987 l 1078 856 l 707 856 l 707 561 l 1078 561 l 1078 432 l 707 432 l 707 136 l 1078 136 l 1078 0 l 566 0 l 566 275 z "},"Ø":{"ha":1093,"x_min":9,"x_max":1050,"o":"m 821 925 l 951 1075 l 1042 1002 l 911 847 q 1016 690 981 776 q 1050 500 1050 605 q 1017 306 1050 395 q 920 147 985 218 q 746 22 842 64 q 534 -20 650 -20 q 386 3 455 -20 q 252 74 317 26 l 100 -102 l 9 -22 l 161 157 q 71 319 100 234 q 41 500 41 404 q 81 695 41 603 q 196 864 120 788 q 354 970 267 935 q 545 1006 441 1006 q 694 985 625 1006 q 821 925 763 965 m 814 733 l 346 184 q 443 138 394 153 q 543 122 492 122 q 800 231 696 122 q 903 501 903 340 q 880 626 903 567 q 814 733 858 684 m 258 269 l 725 812 q 637 851 682 839 q 543 864 593 864 q 292 755 394 864 q 189 488 189 646 q 206 374 189 428 q 258 269 223 320 z "},"∞":{"ha":1157,"x_min":150,"x_max":1008,"o":"m 621 379 q 700 289 654 319 q 802 258 745 258 q 913 304 870 258 q 957 421 957 350 q 917 535 957 490 q 817 581 877 581 q 717 535 762 581 q 621 379 673 490 m 538 452 q 459 541 505 511 q 357 571 414 571 q 245 526 288 571 q 201 410 201 481 q 241 296 201 341 q 342 250 281 250 q 441 295 397 250 q 538 452 486 340 m 571 500 q 671 638 617 593 q 790 682 724 682 q 944 606 880 682 q 1008 416 1008 529 q 952 225 1008 298 q 804 153 895 153 q 690 192 740 153 q 586 328 640 232 q 485 193 538 235 q 368 150 433 150 q 213 226 277 150 q 150 414 150 302 q 207 606 150 532 q 354 679 263 679 q 469 637 418 679 q 571 500 520 595 z "},"±":{"ha":1157,"x_min":172,"x_max":985,"o":"m 985 115 l 985 20 l 172 20 l 172 115 l 985 115 m 627 808 l 627 578 l 985 578 l 985 484 l 627 484 l 627 253 l 530 253 l 530 484 l 172 484 l 172 578 l 530 578 l 530 808 l 627 808 z "},"≤":{"ha":1157,"x_min":178,"x_max":981,"o":"m 981 110 l 981 16 l 178 16 l 178 110 l 981 110 m 979 718 l 345 509 l 979 301 l 979 200 l 178 468 l 178 550 l 979 818 l 979 718 z "},"≥":{"ha":1157,"x_min":178,"x_max":981,"o":"m 981 110 l 981 16 l 178 16 l 178 110 l 981 110 m 981 550 l 981 468 l 178 200 l 178 301 l 814 509 l 178 718 l 178 818 l 981 550 z "},"¥":{"ha":794,"x_min":24,"x_max":770,"o":"m 616 669 l 732 669 l 732 572 l 570 572 l 514 460 l 732 460 l 732 364 l 467 364 l 467 0 l 325 0 l 325 364 l 60 364 l 60 460 l 278 460 l 222 572 l 60 572 l 60 669 l 175 669 l 24 982 l 182 982 l 399 510 l 612 982 l 770 982 l 616 669 z "},"µ":{"ha":781,"x_min":-77,"x_max":724,"o":"m 261 726 l 174 319 q 166 276 169 298 q 164 229 164 254 q 199 125 164 162 q 300 89 235 89 q 441 152 389 89 q 525 363 493 214 l 603 726 l 724 726 l 618 230 q 615 216 617 226 q 603 140 603 157 q 614 105 603 115 q 652 94 625 94 q 664 95 660 94 q 673 96 669 95 l 652 -1 q 618 -6 636 -5 q 579 -8 601 -8 q 513 12 536 -8 q 478 79 490 31 q 402 13 448 35 q 294 -9 356 -9 q 197 9 239 -9 q 121 69 156 28 l 46 -290 l -77 -290 l 139 726 l 261 726 z "},"∂":{"ha":718,"x_min":71,"x_max":652,"o":"m 513 421 q 528 535 523 480 q 533 642 533 591 q 508 773 533 729 q 435 818 484 818 q 349 779 397 818 q 275 739 300 739 q 235 754 251 739 q 218 790 218 769 q 267 865 218 832 q 385 899 316 899 q 579 793 507 899 q 652 510 652 688 q 554 133 652 283 q 311 -17 456 -17 q 139 56 208 -17 q 71 240 71 130 q 145 461 71 374 q 330 549 220 549 q 443 518 399 549 q 513 421 487 487 m 479 335 q 450 456 479 414 q 367 498 420 498 q 245 411 293 498 q 197 183 197 323 q 227 63 197 104 q 310 21 256 21 q 432 109 384 21 q 479 335 479 197 z "},"∑":{"ha":936,"x_min":17,"x_max":908,"o":"m 37 999 l 890 999 l 890 868 l 240 868 l 696 382 l 225 -136 l 908 -136 l 908 -267 l 17 -267 l 17 -165 l 509 378 l 37 879 l 37 999 z "},"∏":{"ha":1051,"x_min":106,"x_max":945,"o":"m 106 999 l 945 999 l 945 -267 l 782 -267 l 782 860 l 268 860 l 268 -267 l 106 -267 l 106 999 z "},"π":{"ha":818,"x_min":-21,"x_max":810,"o":"m 786 619 l 663 619 l 591 289 q 576 208 581 239 q 571 161 571 176 q 587 105 571 122 q 640 89 603 89 q 667 91 652 89 q 708 96 683 92 l 688 0 q 649 -8 667 -5 q 612 -11 630 -11 q 491 24 532 -11 q 450 126 450 58 q 457 206 450 157 q 488 364 465 255 l 542 619 l 321 619 l 189 0 l 66 0 l 199 619 l 171 619 q 114 597 134 619 q 87 529 94 576 l -21 529 q 46 684 -2 642 q 207 726 95 726 l 810 726 l 786 619 z "},"∫":{"ha":724,"x_min":32,"x_max":690,"o":"m 211 -178 q 292 289 283 -178 q 294 401 294 362 q 367 901 302 750 q 568 1051 431 1051 q 656 1023 623 1051 q 690 950 690 994 q 669 892 690 913 q 610 871 647 871 q 562 884 581 871 q 535 920 543 897 q 528 955 531 930 q 514 979 525 979 q 432 559 441 979 q 427 354 429 429 q 351 -111 415 29 q 154 -252 287 -252 q 66 -223 100 -252 q 32 -151 32 -195 q 55 -92 32 -113 q 119 -71 78 -71 q 158 -80 142 -71 q 184 -109 174 -90 q 195 -150 191 -121 q 211 -178 198 -178 z "},"ª":{"ha":671,"x_min":32,"x_max":614,"o":"m 136 729 q 192 596 136 650 q 329 543 248 543 q 460 597 404 543 q 517 724 517 652 q 461 855 517 801 q 328 909 405 909 q 192 857 248 909 q 136 729 136 805 m 511 465 l 511 529 q 426 473 473 492 q 323 454 378 454 q 115 532 197 454 q 32 729 32 610 q 52 833 32 783 q 111 921 73 882 q 204 982 153 962 q 318 1002 254 1002 q 424 982 376 1002 q 511 924 472 963 l 511 987 l 614 987 l 614 465 l 511 465 z "},"º":{"ha":632,"x_min":28,"x_max":604,"o":"m 132 726 q 185 596 132 648 q 317 545 237 545 q 447 597 395 545 q 500 728 500 649 q 447 859 500 808 q 315 911 395 911 q 185 858 238 911 q 132 726 132 806 m 28 726 q 48 831 28 783 q 107 917 68 879 q 202 982 149 959 q 311 1004 255 1004 q 424 984 372 1004 q 519 924 476 964 q 582 834 560 884 q 604 733 604 785 q 584 629 604 680 q 526 539 564 578 q 430 474 483 496 q 317 452 377 452 q 203 472 255 452 q 111 532 151 492 q 50 621 71 570 q 28 726 28 672 z "},"Ω":{"ha":1061,"x_min":53,"x_max":1008,"o":"m 1008 121 l 1008 0 l 602 0 l 602 121 q 789 299 722 186 q 856 549 856 412 q 766 810 856 711 q 530 908 677 908 q 294 809 384 908 q 204 549 204 711 q 272 299 204 412 q 460 121 339 186 l 460 0 l 53 0 l 53 121 l 269 121 q 113 316 162 215 q 64 542 64 417 q 194 891 64 758 q 530 1025 323 1025 q 866 891 736 1025 q 997 549 997 758 q 949 317 997 417 q 791 121 901 216 l 1008 121 z "},"æ":{"ha":1486,"x_min":41,"x_max":1446,"o":"m 1303 444 q 1216 587 1278 536 q 1068 637 1154 637 q 915 586 980 637 q 827 444 850 534 l 1303 444 m 180 378 q 255 189 180 264 q 439 113 330 113 q 614 189 538 113 q 689 368 689 265 q 614 558 689 479 q 436 637 538 637 q 256 562 331 637 q 180 378 180 486 m 803 0 l 682 0 l 682 92 q 566 9 629 37 q 432 -20 503 -20 q 153 94 264 -20 q 41 376 41 207 q 69 526 41 455 q 149 650 97 596 q 273 739 205 710 q 424 768 340 768 q 563 740 498 768 q 684 656 628 712 l 684 746 l 803 746 l 803 661 q 926 742 861 715 q 1067 768 991 768 q 1243 723 1160 768 q 1382 595 1326 677 q 1430 483 1415 544 q 1446 345 1446 422 l 1446 323 l 819 323 q 903 171 836 229 q 1063 113 970 113 q 1184 145 1129 113 q 1272 236 1240 178 l 1422 236 q 1278 46 1371 112 q 1064 -20 1186 -20 q 921 6 986 -20 q 803 83 857 32 l 803 0 z "},"ø":{"ha":842,"x_min":22,"x_max":821,"o":"m 221 218 l 541 603 q 480 627 509 619 q 422 635 450 635 q 248 559 319 635 q 176 371 176 484 q 187 293 176 331 q 221 218 198 256 m 621 530 l 301 142 q 358 118 330 125 q 416 110 387 110 q 598 184 528 110 q 668 379 668 259 q 656 456 668 418 q 621 530 644 494 m 627 705 l 736 839 l 821 775 l 708 635 q 782 514 758 577 q 807 380 807 450 q 780 231 807 304 q 703 104 752 159 q 575 9 646 41 q 418 -22 503 -22 q 313 -7 364 -22 q 214 39 262 8 l 104 -93 l 22 -21 l 132 113 q 61 236 84 172 q 37 371 37 300 q 64 519 37 450 q 143 643 91 588 q 271 735 200 704 q 421 766 341 766 q 529 751 477 766 q 627 705 581 736 z "},"¿":{"ha":675,"x_min":62,"x_max":653,"o":"m 432 729 q 406 595 431 659 q 335 475 382 532 q 289 426 319 457 q 205 271 205 343 q 250 156 205 200 q 368 113 295 113 q 475 159 435 113 q 518 283 516 205 l 652 283 q 567 65 650 151 q 357 -20 483 -20 q 146 63 231 -20 q 62 269 62 146 q 181 509 62 385 l 189 517 q 270 625 249 578 q 294 729 292 671 l 432 729 m 432 987 l 432 828 l 298 828 l 298 987 l 432 987 z "},"¡":{"ha":403,"x_min":135,"x_max":268,"o":"m 135 743 l 268 743 l 268 0 l 135 0 l 135 743 m 135 987 l 268 987 l 268 829 l 135 829 l 135 987 z "},"¬":{"ha":1157,"x_min":172,"x_max":985,"o":"m 985 583 l 985 243 l 892 243 l 892 489 l 172 489 l 172 583 l 985 583 z "},"√":{"ha":885,"x_min":41,"x_max":885,"o":"m 885 1126 l 885 1061 l 807 1061 l 404 -28 l 359 -28 l 143 571 l 58 541 l 41 595 l 233 661 l 407 180 l 757 1126 l 885 1126 z "},"ƒ":{"ha":794,"x_min":103,"x_max":652,"o":"m 418 -32 q 346 -230 406 -174 q 144 -286 285 -286 q 124 -286 138 -286 q 103 -285 110 -285 l 103 -161 l 131 -161 q 237 -133 208 -161 q 273 -22 267 -105 l 318 488 l 154 488 l 154 606 l 326 606 l 336 753 q 405 950 346 895 q 602 1006 464 1006 q 631 1005 621 1006 q 651 1004 642 1005 l 652 884 l 629 884 q 519 857 549 884 q 481 742 488 829 l 469 606 l 647 606 l 647 488 l 463 488 l 418 -32 z "},"≈":{"ha":1157,"x_min":121,"x_max":1038,"o":"m 1038 292 q 902 219 966 242 q 774 196 838 196 q 581 242 709 196 q 382 288 452 288 q 266 263 326 288 q 121 180 205 239 l 121 286 q 259 360 194 336 q 383 385 324 385 q 590 338 461 385 q 775 292 719 292 q 895 316 835 292 q 1038 397 956 340 l 1038 292 m 1038 542 q 902 469 966 492 q 774 446 838 446 q 581 492 709 446 q 382 538 452 538 q 266 513 326 538 q 121 431 205 489 l 121 536 q 258 609 193 585 q 383 633 323 633 q 590 588 462 633 q 775 542 719 542 q 894 565 834 542 q 1038 647 954 589 l 1038 542 z "},"∆":{"ha":929,"x_min":-4,"x_max":933,"o":"m 747 121 l 464 856 l 180 121 l 747 121 m 541 999 l 933 0 l -4 0 l 389 999 l 541 999 z "},"«":{"ha":700,"x_min":86,"x_max":597,"o":"m 355 161 l 254 161 l 86 374 l 254 585 l 355 585 l 192 372 l 355 161 m 597 161 l 494 161 l 326 374 l 494 585 l 597 585 l 432 372 l 597 161 z "},"»":{"ha":700,"x_min":103,"x_max":614,"o":"m 103 161 l 268 372 l 103 585 l 205 585 l 374 374 l 205 161 l 103 161 m 345 161 l 509 372 l 345 585 l 446 585 l 614 374 l 446 161 l 345 161 z "},"…":{"ha":1389,"x_min":164,"x_max":1226,"o":"m 300 0 l 164 0 l 164 167 l 300 167 l 300 0 m 762 0 l 627 0 l 627 167 l 762 167 l 762 0 m 1226 0 l 1090 0 l 1090 167 l 1226 167 l 1226 0 z "}," ":{"ha":794,"x_min":0,"x_max":0,"o":""},"À":{"ha":836,"x_min":-43,"x_max":868,"o":"m 551 427 l 412 802 l 271 427 l 551 427 m 220 288 l 109 0 l -43 0 l 343 987 l 482 987 l 868 0 l 711 0 l 603 288 l 220 288 m 509 1079 l 428 1079 l 235 1315 l 371 1315 l 509 1079 z "},"Ã":{"ha":836,"x_min":-43,"x_max":868,"o":"m 551 427 l 412 802 l 271 427 l 551 427 m 220 288 l 109 0 l -43 0 l 343 987 l 482 987 l 868 0 l 711 0 l 603 288 l 220 288 m 611 1267 q 563 1162 597 1198 q 477 1126 529 1126 q 457 1128 468 1126 q 433 1133 446 1130 l 368 1152 q 350 1156 359 1154 q 334 1157 342 1157 q 298 1145 313 1157 q 273 1109 283 1133 l 214 1109 q 260 1214 226 1177 q 345 1250 294 1250 q 366 1249 356 1250 q 385 1244 376 1247 l 452 1225 q 471 1221 462 1222 q 488 1219 479 1219 q 526 1231 510 1219 q 551 1267 542 1242 l 611 1267 z "},"Õ":{"ha":1093,"x_min":41,"x_max":1050,"o":"m 191 498 q 216 352 191 421 q 290 233 242 283 q 408 151 341 180 q 543 122 474 122 q 800 231 696 122 q 903 501 903 340 q 878 632 903 570 q 806 746 853 694 q 685 835 749 806 q 543 864 621 864 q 410 838 473 864 q 298 761 347 811 q 219 640 248 709 q 191 498 191 570 m 41 500 q 81 696 41 604 q 196 864 120 789 q 356 971 268 935 q 545 1007 444 1007 q 737 971 648 1007 q 899 863 825 935 q 1012 697 974 789 q 1050 500 1050 606 q 1017 306 1050 395 q 920 147 985 218 q 748 22 843 64 q 543 -20 654 -20 q 338 23 432 -20 q 170 150 244 66 q 74 309 106 220 q 41 500 41 398 m 746 1267 q 698 1162 732 1198 q 612 1126 664 1126 q 592 1128 603 1126 q 568 1133 581 1130 l 503 1152 q 485 1156 494 1154 q 469 1157 477 1157 q 433 1145 448 1157 q 408 1109 418 1133 l 349 1109 q 395 1214 361 1177 q 479 1250 429 1250 q 501 1249 491 1250 q 519 1244 511 1247 l 587 1225 q 606 1221 597 1222 q 623 1219 614 1219 q 661 1231 645 1219 q 686 1267 677 1242 l 746 1267 z "},"Œ":{"ha":1478,"x_min":41,"x_max":1389,"o":"m 1389 0 l 876 0 l 876 127 q 721 17 806 53 q 528 -20 635 -20 q 329 23 420 -20 q 165 150 238 66 q 73 309 104 220 q 41 500 41 397 q 79 695 41 604 q 192 864 117 787 q 347 971 262 935 q 529 1007 432 1007 q 720 971 636 1007 q 876 860 804 936 l 876 987 l 1389 987 l 1389 856 l 1019 856 l 1019 561 l 1389 561 l 1389 432 l 1019 432 l 1019 136 l 1389 136 l 1389 0 m 186 498 q 211 353 186 422 q 283 233 237 284 q 397 151 333 180 q 528 122 462 122 q 776 231 676 122 q 876 501 876 340 q 853 632 876 569 q 783 749 829 694 q 666 836 729 807 q 528 864 603 864 q 400 838 460 864 q 292 761 340 811 q 214 639 241 708 q 186 498 186 570 z "},"œ":{"ha":1467,"x_min":37,"x_max":1428,"o":"m 1282 444 q 1195 587 1257 536 q 1047 637 1133 637 q 895 585 960 637 q 806 444 829 533 l 1282 444 m 176 372 q 247 186 176 260 q 424 111 318 111 q 598 186 528 111 q 668 374 668 261 q 598 562 668 487 q 422 637 528 637 q 248 561 319 637 q 176 372 176 485 m 733 143 q 596 21 674 62 q 424 -20 519 -20 q 272 9 340 -20 q 149 96 203 38 q 66 223 96 151 q 37 371 37 295 q 64 519 37 450 q 143 644 91 588 q 270 736 199 705 q 416 768 340 768 q 596 726 515 768 q 733 603 677 683 q 871 727 795 686 q 1039 768 947 768 q 1320 651 1212 768 q 1428 343 1428 533 l 1428 323 l 802 323 q 885 170 818 228 q 1044 111 951 111 q 1167 143 1112 111 q 1254 233 1222 176 l 1404 233 q 1260 44 1350 107 q 1046 -20 1171 -20 q 867 20 943 -20 q 733 143 790 60 z "},"–":{"ha":694,"x_min":0,"x_max":694,"o":"m 0 323 l 0 421 l 694 421 l 694 323 l 0 323 z "},"—":{"ha":1389,"x_min":0,"x_max":1389,"o":"m 0 323 l 0 421 l 1389 421 l 1389 323 l 0 323 z "},"“":{"ha":547,"x_min":92,"x_max":454,"o":"m 229 672 l 92 672 l 92 819 q 123 947 92 904 q 229 1007 155 990 l 229 917 q 193 894 203 909 q 182 848 182 878 l 182 836 l 229 836 l 229 672 m 454 672 l 317 672 l 317 819 q 349 947 317 904 q 454 1007 380 990 l 454 917 q 418 894 429 909 q 407 848 407 878 l 407 836 l 454 836 l 454 672 z "},"”":{"ha":547,"x_min":92,"x_max":454,"o":"m 317 987 l 454 987 l 454 840 q 422 713 454 755 q 317 653 391 670 l 317 742 q 353 764 342 749 q 364 810 364 780 l 364 822 l 317 822 l 317 987 m 92 987 l 229 987 l 229 840 q 197 713 229 755 q 92 653 165 670 l 92 742 q 128 764 117 749 q 139 810 139 780 l 139 822 l 92 822 l 92 987 z "},"‘":{"ha":321,"x_min":92,"x_max":229,"o":"m 229 672 l 92 672 l 92 819 q 123 947 92 904 q 229 1007 155 990 l 229 917 q 193 894 203 909 q 182 848 182 878 l 182 836 l 229 836 l 229 672 z "},"’":{"ha":321,"x_min":92,"x_max":229,"o":"m 92 987 l 229 987 l 229 840 q 197 713 229 755 q 92 653 165 670 l 92 742 q 128 764 117 749 q 139 810 139 780 l 139 822 l 92 822 l 92 987 z "},"÷":{"ha":1157,"x_min":172,"x_max":985,"o":"m 579 249 q 639 224 614 249 q 664 164 664 199 q 639 104 664 129 q 579 79 614 79 q 519 104 543 79 q 494 164 494 128 q 519 224 494 199 q 579 249 545 249 m 985 461 l 985 367 l 172 367 l 172 461 l 985 461 m 579 750 q 639 725 614 750 q 664 664 664 699 q 639 604 664 629 q 579 579 614 579 q 519 604 544 579 q 494 664 494 629 q 519 725 494 699 q 579 750 545 750 z "},"◊":{"ha":686,"x_min":4,"x_max":682,"o":"m 343 956 l 82 401 l 343 -158 l 604 401 l 343 956 m 343 1121 l 682 401 l 343 -323 l 4 401 l 343 1121 z "},"ÿ":{"ha":711,"x_min":4,"x_max":713,"o":"m 4 746 l 149 746 l 350 191 l 568 746 l 713 746 l 311 -241 l 170 -241 l 273 21 l 4 746 m 414 882 l 414 1023 l 538 1023 l 538 882 l 414 882 m 172 882 l 172 1023 l 297 1023 l 297 882 l 172 882 z "},"Ÿ":{"ha":685,"x_min":-33,"x_max":718,"o":"m 412 355 l 412 0 l 269 0 l 269 364 l -33 987 l 126 987 l 343 513 l 559 987 l 718 987 l 412 355 m 401 1119 l 401 1261 l 526 1261 l 526 1119 l 401 1119 m 160 1119 l 160 1261 l 285 1261 l 285 1119 l 160 1119 z "},"∕":{"ha":232,"x_min":-232,"x_max":463,"o":"m 366 1007 l 463 1007 l -134 -20 l -232 -20 l 366 1007 z "},"¤":{"ha":842,"x_min":54,"x_max":789,"o":"m 628 602 q 568 747 628 686 q 422 807 507 807 q 277 747 337 807 q 216 602 216 686 q 277 455 216 516 q 422 395 337 395 q 568 455 507 395 q 628 602 628 516 m 249 827 q 330 870 288 856 q 421 885 373 885 q 512 870 469 885 q 595 827 555 856 l 733 965 l 789 911 l 650 771 q 691 691 677 734 q 705 600 705 648 q 692 508 705 551 q 650 429 678 466 l 789 290 l 733 235 l 595 374 q 512 330 555 344 q 422 315 469 315 q 331 330 374 315 q 249 374 288 345 l 110 235 l 54 290 l 195 429 q 152 508 167 464 q 138 600 138 552 q 152 690 138 648 q 195 771 166 733 l 54 911 l 110 965 l 249 827 z "},"‹":{"ha":460,"x_min":86,"x_max":355,"o":"m 355 161 l 254 161 l 86 374 l 254 585 l 355 585 l 192 372 l 355 161 z "},"›":{"ha":460,"x_min":104,"x_max":374,"o":"m 104 161 l 268 372 l 104 585 l 205 585 l 374 374 l 205 161 l 104 161 z "},"":{"ha":672,"x_min":25,"x_max":587,"o":"m 454 0 l 454 746 l 587 746 l 587 0 l 454 0 m 245 0 l 114 0 l 114 629 l 25 629 l 25 746 l 109 746 l 109 768 q 172 941 109 883 q 363 999 236 999 l 363 875 l 351 875 q 267 848 292 875 q 241 757 241 821 l 241 746 l 363 746 l 363 629 l 245 629 l 245 0 m 587 833 l 454 833 l 454 987 l 587 987 l 587 833 z "},"":{"ha":672,"x_min":24,"x_max":587,"o":"m 245 0 l 114 0 l 114 629 l 24 629 l 24 746 l 109 746 l 109 768 q 172 941 109 883 q 363 999 236 999 l 363 875 l 351 875 q 267 848 292 875 q 241 757 241 821 l 241 746 l 363 746 l 363 629 l 245 629 l 245 0 m 454 0 l 454 987 l 587 987 l 587 0 l 454 0 z "},"‡":{"ha":694,"x_min":40,"x_max":654,"o":"m 281 -158 l 281 109 l 40 109 l 40 225 l 281 225 l 281 603 l 40 603 l 40 720 l 281 720 l 281 987 l 414 987 l 414 720 l 654 720 l 654 603 l 414 603 l 414 225 l 654 225 l 654 109 l 414 109 l 414 -158 l 281 -158 z "},"·":{"ha":397,"x_min":122,"x_max":273,"o":"m 122 494 q 144 548 122 526 q 199 570 167 570 q 252 548 230 570 q 273 494 273 526 q 252 440 273 463 q 199 418 230 418 q 144 440 167 418 q 122 494 122 463 z "},"‚":{"ha":321,"x_min":92,"x_max":229,"o":"m 92 167 l 229 167 l 229 20 q 197 -108 229 -65 q 92 -168 165 -151 l 92 -79 q 128 -56 117 -72 q 139 -11 139 -41 l 139 1 l 92 1 l 92 167 z "},"„":{"ha":547,"x_min":92,"x_max":454,"o":"m 317 167 l 454 167 l 454 20 q 422 -108 454 -65 q 317 -168 391 -151 l 317 -79 q 353 -56 342 -72 q 364 -11 364 -41 l 364 1 l 317 1 l 317 167 m 92 167 l 229 167 l 229 20 q 197 -108 229 -65 q 92 -168 165 -151 l 92 -79 q 128 -56 117 -72 q 139 -11 139 -41 l 139 1 l 92 1 l 92 167 z "},"‰":{"ha":1800,"x_min":56,"x_max":1746,"o":"m 1367 224 q 1405 128 1367 167 q 1500 89 1444 89 q 1595 128 1556 89 q 1634 224 1634 168 q 1595 318 1634 279 q 1500 357 1556 357 q 1405 318 1444 357 q 1367 224 1367 280 m 1258 224 q 1277 316 1258 272 q 1331 396 1296 361 q 1410 448 1365 430 q 1503 467 1454 467 q 1596 448 1552 467 q 1675 396 1640 430 q 1728 317 1710 361 q 1746 224 1746 273 q 1728 130 1746 174 q 1675 52 1710 86 q 1596 -1 1640 17 q 1503 -20 1552 -20 q 1410 -1 1454 -20 q 1331 52 1365 17 q 1277 131 1296 86 q 1258 224 1258 175 m 163 764 q 202 669 163 708 q 297 631 241 631 q 392 669 353 631 q 431 764 431 707 q 392 859 431 820 q 297 897 353 897 q 202 859 241 897 q 163 764 163 820 m 56 764 q 74 858 56 813 q 126 936 92 902 q 205 989 161 970 q 298 1007 250 1007 q 392 989 348 1007 q 471 936 437 970 q 524 858 505 902 q 542 764 542 813 q 524 670 542 714 q 471 591 505 627 q 392 539 437 557 q 298 521 348 521 q 205 539 250 521 q 126 591 161 557 q 74 670 92 626 q 56 764 56 715 m 825 1007 l 921 1007 l 395 -21 l 296 -21 l 825 1007 m 783 224 q 823 128 783 168 q 918 89 862 89 q 1013 128 974 89 q 1051 224 1051 167 q 1013 318 1051 280 q 918 357 975 357 q 822 318 861 357 q 783 224 783 279 m 676 224 q 694 317 676 273 q 747 396 713 361 q 826 448 781 430 q 920 467 870 467 q 1013 448 968 467 q 1092 396 1057 430 q 1144 317 1126 361 q 1162 224 1162 273 q 1144 130 1162 174 q 1092 52 1126 86 q 1013 -1 1057 17 q 920 -20 968 -20 q 826 -1 870 -20 q 747 52 781 17 q 694 130 713 85 q 676 224 676 174 z "},"Â":{"ha":836,"x_min":-43,"x_max":868,"o":"m 551 427 l 412 802 l 271 427 l 551 427 m 220 288 l 109 0 l -43 0 l 343 987 l 482 987 l 868 0 l 711 0 l 603 288 l 220 288 m 212 1079 l 346 1315 l 479 1315 l 612 1079 l 529 1079 l 412 1234 l 294 1079 l 212 1079 z "},"Ê":{"ha":688,"x_min":86,"x_max":599,"o":"m 599 0 l 86 0 l 86 987 l 599 987 l 599 856 l 229 856 l 229 561 l 599 561 l 599 432 l 229 432 l 229 136 l 599 136 l 599 0 m 142 1079 l 275 1315 l 408 1315 l 542 1079 l 458 1079 l 342 1234 l 224 1079 l 142 1079 z "},"Á":{"ha":836,"x_min":-43,"x_max":868,"o":"m 551 427 l 412 802 l 271 427 l 551 427 m 220 288 l 109 0 l -43 0 l 343 987 l 482 987 l 868 0 l 711 0 l 603 288 l 220 288 m 315 1079 l 454 1315 l 590 1315 l 397 1079 l 315 1079 z "},"Ë":{"ha":688,"x_min":86,"x_max":599,"o":"m 599 0 l 86 0 l 86 987 l 599 987 l 599 856 l 229 856 l 229 561 l 599 561 l 599 432 l 229 432 l 229 136 l 599 136 l 599 0 m 400 1119 l 400 1261 l 525 1261 l 525 1119 l 400 1119 m 159 1119 l 159 1261 l 283 1261 l 283 1119 l 159 1119 z "},"È":{"ha":688,"x_min":86,"x_max":599,"o":"m 599 0 l 86 0 l 86 987 l 599 987 l 599 856 l 229 856 l 229 561 l 599 561 l 599 432 l 229 432 l 229 136 l 599 136 l 599 0 m 439 1079 l 357 1079 l 164 1315 l 300 1315 l 439 1079 z "},"Í":{"ha":315,"x_min":61,"x_max":336,"o":"m 229 0 l 86 0 l 86 987 l 229 987 l 229 0 m 61 1079 l 199 1315 l 336 1315 l 142 1079 l 61 1079 z "},"Î":{"ha":315,"x_min":-42,"x_max":358,"o":"m 229 0 l 86 0 l 86 987 l 229 987 l 229 0 m -42 1079 l 92 1315 l 224 1315 l 358 1079 l 275 1079 l 158 1234 l 40 1079 l -42 1079 z "},"Ï":{"ha":315,"x_min":-25,"x_max":341,"o":"m 229 0 l 86 0 l 86 987 l 229 987 l 229 0 m 216 1119 l 216 1261 l 341 1261 l 341 1119 l 216 1119 m -25 1119 l -25 1261 l 100 1261 l 100 1119 l -25 1119 z "},"Ì":{"ha":315,"x_min":-20,"x_max":255,"o":"m 229 0 l 86 0 l 86 987 l 229 987 l 229 0 m 255 1079 l 174 1079 l -20 1315 l 117 1315 l 255 1079 z "},"Ó":{"ha":1093,"x_min":41,"x_max":1050,"o":"m 191 498 q 216 352 191 421 q 290 233 242 283 q 408 151 341 180 q 543 122 474 122 q 800 231 696 122 q 903 501 903 340 q 878 632 903 570 q 806 746 853 694 q 685 835 749 806 q 543 864 621 864 q 410 838 473 864 q 298 761 347 811 q 219 640 248 709 q 191 498 191 570 m 41 500 q 81 696 41 604 q 196 864 120 789 q 356 971 268 935 q 545 1007 444 1007 q 737 971 648 1007 q 899 863 825 935 q 1012 697 974 789 q 1050 500 1050 606 q 1017 306 1050 395 q 920 147 985 218 q 748 22 843 64 q 543 -20 654 -20 q 338 23 432 -20 q 170 150 244 66 q 74 309 106 220 q 41 500 41 398 m 450 1079 l 589 1315 l 725 1315 l 532 1079 l 450 1079 z "},"Ô":{"ha":1093,"x_min":41,"x_max":1050,"o":"m 191 498 q 216 352 191 421 q 290 233 242 283 q 408 151 341 180 q 543 122 474 122 q 800 231 696 122 q 903 501 903 340 q 878 632 903 570 q 806 746 853 694 q 685 835 749 806 q 543 864 621 864 q 410 838 473 864 q 298 761 347 811 q 219 640 248 709 q 191 498 191 570 m 41 500 q 81 696 41 604 q 196 864 120 789 q 356 971 268 935 q 545 1007 444 1007 q 737 971 648 1007 q 899 863 825 935 q 1012 697 974 789 q 1050 500 1050 606 q 1017 306 1050 395 q 920 147 985 218 q 748 22 843 64 q 543 -20 654 -20 q 338 23 432 -20 q 170 150 244 66 q 74 309 106 220 q 41 500 41 398 m 347 1079 l 481 1315 l 614 1315 l 747 1079 l 664 1079 l 547 1234 l 429 1079 l 347 1079 z "},"":{"ha":1097,"x_min":77,"x_max":1021,"o":"m 567 825 q 566 834 566 829 q 566 850 566 840 q 630 1005 566 934 q 790 1095 694 1077 q 791 1079 791 1088 q 791 1053 791 1070 q 721 893 791 964 q 583 823 651 823 l 578 823 q 573 824 576 823 q 567 825 570 825 m 1021 273 q 882 41 943 106 q 743 -24 820 -24 q 654 -1 709 -24 q 571 21 599 21 q 482 -1 541 21 q 396 -24 424 -24 q 309 6 353 -24 q 221 96 265 36 q 114 296 152 191 q 77 500 77 401 q 161 742 77 648 q 380 835 246 835 q 486 812 427 835 q 570 789 545 789 q 652 812 593 789 q 755 836 711 836 q 890 809 830 836 q 999 725 949 782 q 896 626 930 681 q 863 503 863 572 q 903 367 863 426 q 1021 273 944 308 z "},"Ò":{"ha":1093,"x_min":41,"x_max":1050,"o":"m 191 498 q 216 352 191 421 q 290 233 242 283 q 408 151 341 180 q 543 122 474 122 q 800 231 696 122 q 903 501 903 340 q 878 632 903 570 q 806 746 853 694 q 685 835 749 806 q 543 864 621 864 q 410 838 473 864 q 298 761 347 811 q 219 640 248 709 q 191 498 191 570 m 41 500 q 81 696 41 604 q 196 864 120 789 q 356 971 268 935 q 545 1007 444 1007 q 737 971 648 1007 q 899 863 825 935 q 1012 697 974 789 q 1050 500 1050 606 q 1017 306 1050 395 q 920 147 985 218 q 748 22 843 64 q 543 -20 654 -20 q 338 23 432 -20 q 170 150 244 66 q 74 309 106 220 q 41 500 41 398 m 644 1079 l 563 1079 l 370 1315 l 506 1315 l 644 1079 z "},"Ú":{"ha":785,"x_min":77,"x_max":707,"o":"m 77 987 l 220 987 l 220 359 q 260 173 220 225 q 396 121 300 121 q 526 174 488 121 q 564 359 564 227 l 564 987 l 707 987 l 707 361 q 695 207 707 260 q 659 114 684 153 q 550 13 614 46 q 399 -20 486 -20 q 239 12 304 -20 q 126 113 174 44 q 88 201 100 152 q 77 361 77 250 l 77 987 m 296 1079 l 435 1315 l 571 1315 l 378 1079 l 296 1079 z "},"Û":{"ha":785,"x_min":77,"x_max":707,"o":"m 77 987 l 220 987 l 220 359 q 260 173 220 225 q 396 121 300 121 q 526 174 488 121 q 564 359 564 227 l 564 987 l 707 987 l 707 361 q 695 207 707 260 q 659 114 684 153 q 550 13 614 46 q 399 -20 486 -20 q 239 12 304 -20 q 126 113 174 44 q 88 201 100 152 q 77 361 77 250 l 77 987 m 193 1079 l 327 1315 l 460 1315 l 593 1079 l 510 1079 l 393 1234 l 275 1079 l 193 1079 z "},"Ù":{"ha":785,"x_min":77,"x_max":707,"o":"m 77 987 l 220 987 l 220 359 q 260 173 220 225 q 396 121 300 121 q 526 174 488 121 q 564 359 564 227 l 564 987 l 707 987 l 707 361 q 695 207 707 260 q 659 114 684 153 q 550 13 614 46 q 399 -20 486 -20 q 239 12 304 -20 q 126 113 174 44 q 88 201 100 152 q 77 361 77 250 l 77 987 m 490 1079 l 409 1079 l 216 1315 l 352 1315 l 490 1079 z "},"ı":{"ha":293,"x_min":79,"x_max":212,"o":"m 79 0 l 79 746 l 212 746 l 212 0 l 79 0 z "},"ˆ":{"ha":694,"x_min":147,"x_max":547,"o":"m 147 842 l 281 1078 l 414 1078 l 547 842 l 464 842 l 347 997 l 229 842 l 147 842 z "},"˜":{"ha":694,"x_min":149,"x_max":546,"o":"m 546 1029 q 498 925 532 961 q 412 889 464 889 q 392 891 403 889 q 368 896 380 892 l 302 914 q 285 918 294 917 q 269 920 277 920 q 233 908 248 920 q 208 872 218 896 l 149 872 q 195 976 161 940 q 279 1013 229 1013 q 301 1011 291 1013 q 319 1007 311 1010 l 387 987 q 406 983 397 985 q 422 982 414 982 q 461 994 445 982 q 486 1029 477 1005 l 546 1029 z "},"¯":{"ha":694,"x_min":164,"x_max":530,"o":"m 164 905 l 164 1000 l 530 1000 l 530 905 l 164 905 z "},"˘":{"ha":694,"x_min":150,"x_max":545,"o":"m 150 1054 l 224 1054 q 257 982 227 1005 q 347 960 287 960 q 438 983 408 960 q 471 1054 468 1006 l 545 1054 q 490 911 537 956 q 347 865 442 865 q 204 911 252 865 q 150 1054 157 956 z "},"˙":{"ha":694,"x_min":282,"x_max":412,"o":"m 282 878 l 282 1028 l 412 1028 l 412 878 l 282 878 z "},"˚":{"ha":694,"x_min":176,"x_max":519,"o":"m 256 1000 q 282 935 256 962 q 347 908 309 908 q 412 935 385 908 q 439 1000 439 962 q 412 1065 439 1038 q 347 1092 385 1092 q 282 1065 309 1092 q 256 1000 256 1038 m 176 1000 q 226 1122 176 1072 q 347 1173 275 1173 q 469 1122 419 1173 q 519 1000 519 1072 q 469 879 519 928 q 347 829 419 829 q 226 879 275 829 q 176 1000 176 928 z "},"¸":{"ha":694,"x_min":174,"x_max":518,"o":"m 174 -289 l 174 -221 q 271 -240 227 -233 q 340 -248 314 -248 q 402 -234 381 -248 q 422 -192 422 -220 q 400 -148 422 -162 q 332 -134 378 -134 q 311 -134 318 -134 q 296 -134 303 -134 l 296 0 l 347 0 l 347 -69 l 367 -69 q 479 -100 441 -69 q 518 -192 518 -132 q 475 -287 518 -254 q 349 -319 431 -319 q 270 -312 315 -319 q 174 -289 226 -304 z "},"˝":{"ha":694,"x_min":211,"x_max":618,"o":"m 386 842 l 498 1078 l 618 1078 l 452 842 l 386 842 m 211 842 l 304 1078 l 425 1078 l 277 842 l 211 842 z "},"˛":{"ha":694,"x_min":231,"x_max":441,"o":"m 412 0 q 342 -79 364 -43 q 319 -150 319 -115 q 334 -191 319 -179 q 385 -203 348 -203 l 441 -203 l 441 -300 l 383 -300 q 269 -271 307 -300 q 231 -186 231 -243 q 260 -97 231 -141 q 357 0 290 -54 l 412 0 z "},"ˇ":{"ha":694,"x_min":147,"x_max":547,"o":"m 147 1078 l 229 1078 l 347 924 l 464 1078 l 547 1078 l 414 842 l 281 842 l 147 1078 z "},"Ł":{"ha":599,"x_min":0,"x_max":570,"o":"m 570 0 l 103 0 l 103 345 l 0 273 l 0 403 l 103 473 l 103 987 l 244 987 l 244 564 l 407 677 l 407 549 l 244 436 l 244 136 l 570 136 l 570 0 z "},"ł":{"ha":330,"x_min":0,"x_max":330,"o":"m 98 0 l 98 385 l 0 317 l 0 444 l 98 513 l 98 987 l 232 987 l 232 589 l 330 660 l 330 532 l 232 463 l 232 0 l 98 0 z "},"Š":{"ha":660,"x_min":33,"x_max":616,"o":"m 34 285 l 162 285 q 208 162 165 208 q 317 117 250 117 q 435 162 391 117 q 479 285 479 208 q 447 389 479 352 q 311 457 414 425 q 292 462 305 458 q 113 571 168 495 q 75 642 87 604 q 62 722 62 680 q 138 927 62 849 q 335 1006 213 1006 q 518 936 448 1006 q 595 743 587 865 l 461 743 q 421 839 458 802 q 330 875 385 875 q 234 834 271 875 q 197 730 197 794 q 204 688 197 708 q 225 652 211 669 q 350 592 254 617 q 418 572 394 581 q 566 466 515 536 q 616 298 616 396 q 535 68 616 155 q 319 -20 454 -20 q 114 64 193 -20 q 34 285 35 148 m 130 1315 l 212 1315 l 330 1161 l 447 1315 l 530 1315 l 397 1079 l 264 1079 l 130 1315 z "},"š":{"ha":541,"x_min":28,"x_max":504,"o":"m 28 241 l 154 241 q 187 144 154 182 q 269 106 220 106 q 346 135 316 106 q 376 208 376 163 q 355 275 376 248 q 286 321 334 302 q 240 338 270 328 q 139 386 161 368 q 80 458 99 418 q 61 551 61 498 q 124 706 61 642 q 279 770 188 770 q 431 714 375 770 q 493 557 488 658 l 364 557 q 337 621 361 598 q 273 644 313 644 q 213 620 237 644 q 189 558 189 595 q 298 456 189 496 q 346 437 328 444 q 468 351 431 403 q 504 214 504 300 q 436 47 504 113 q 265 -20 368 -20 q 98 50 161 -20 q 28 241 34 120 m 71 1078 l 153 1078 l 271 924 l 387 1078 l 471 1078 l 337 842 l 204 842 l 71 1078 z "},"Ž":{"ha":660,"x_min":26,"x_max":632,"o":"m 632 0 l 26 0 l 26 140 l 458 848 l 54 848 l 54 987 l 624 987 l 624 863 l 176 136 l 632 136 l 632 0 m 130 1315 l 212 1315 l 330 1161 l 447 1315 l 530 1315 l 397 1079 l 264 1079 l 130 1315 z "},"ž":{"ha":559,"x_min":14,"x_max":529,"o":"m 529 0 l 14 0 l 14 109 l 374 624 l 57 624 l 57 746 l 509 746 l 509 608 l 172 126 l 529 126 l 529 0 m 81 1078 l 163 1078 l 281 924 l 397 1078 l 481 1078 l 347 842 l 214 842 l 81 1078 z "},"¦":{"ha":694,"x_min":297,"x_max":399,"o":"m 399 277 l 399 -237 l 297 -237 l 297 277 l 399 277 m 399 971 l 399 457 l 297 457 l 297 971 l 399 971 z "},"Ð":{"ha":954,"x_min":-7,"x_max":908,"o":"m 374 0 l 96 0 l 96 439 l -7 439 l -7 558 l 96 558 l 96 987 l 412 987 q 772 850 635 987 q 908 490 908 712 q 858 260 908 363 q 711 87 807 156 q 572 20 646 41 q 374 0 498 0 m 235 132 l 408 132 q 669 228 574 132 q 765 489 765 324 q 663 756 765 659 q 380 852 561 852 l 235 852 l 235 558 l 465 558 l 465 439 l 235 439 l 235 132 z "},"ð":{"ha":842,"x_min":75,"x_max":770,"o":"m 416 571 q 263 503 326 571 q 200 335 200 435 q 263 167 200 235 q 419 100 326 100 q 579 168 516 100 q 642 342 642 235 q 577 506 642 440 q 416 571 513 571 m 591 631 q 533 726 564 685 q 468 799 503 768 l 271 726 l 240 804 l 390 861 q 361 879 378 869 q 301 909 344 888 l 342 996 q 434 951 393 974 q 507 904 475 928 l 705 978 l 742 899 l 589 840 q 725 631 680 743 q 770 389 770 518 q 673 92 770 204 q 422 -20 577 -20 q 175 84 275 -20 q 75 338 75 187 q 100 468 75 406 q 170 579 124 530 q 284 662 220 633 q 416 690 348 690 q 510 676 467 690 q 591 631 553 661 z "},"Ý":{"ha":685,"x_min":-33,"x_max":718,"o":"m 412 355 l 412 0 l 269 0 l 269 364 l -33 987 l 126 987 l 343 513 l 559 987 l 718 987 l 412 355 m 246 1079 l 385 1315 l 521 1315 l 328 1079 l 246 1079 z "},"ý":{"ha":711,"x_min":4,"x_max":713,"o":"m 4 746 l 149 746 l 350 191 l 568 746 l 713 746 l 311 -241 l 170 -241 l 273 21 l 4 746 m 258 842 l 397 1078 l 533 1078 l 340 842 l 258 842 z "},"Þ":{"ha":714,"x_min":86,"x_max":686,"o":"m 228 346 l 332 346 q 492 385 442 346 q 542 507 542 423 q 491 632 542 591 q 336 672 441 672 l 228 672 l 228 346 m 228 214 l 228 0 l 86 0 l 86 987 l 228 987 l 228 804 l 315 804 q 465 795 416 804 q 551 764 514 785 q 650 661 613 728 q 686 515 686 593 q 593 296 686 378 q 342 214 500 214 l 228 214 z "},"þ":{"ha":895,"x_min":75,"x_max":852,"o":"m 456 635 q 281 558 357 635 q 205 378 205 481 q 280 189 205 267 q 457 111 354 111 q 638 186 563 111 q 713 368 713 260 q 638 558 713 481 q 456 635 564 635 m 210 90 l 210 -241 l 75 -241 l 75 987 l 210 987 l 211 654 q 325 735 261 707 q 461 762 389 762 q 609 736 541 762 q 732 660 678 710 q 820 532 788 607 q 852 379 852 456 q 744 94 852 207 q 469 -20 635 -20 q 329 8 393 -20 q 210 90 264 35 z "},"−":{"ha":1157,"x_min":172,"x_max":985,"o":"m 985 463 l 985 367 l 172 367 l 172 463 l 985 463 z "},"×":{"ha":1157,"x_min":199,"x_max":968,"o":"m 583 481 l 901 799 l 968 732 l 650 414 l 968 96 l 901 31 l 583 347 l 265 31 l 199 96 l 517 414 l 199 732 l 265 799 l 583 481 z "},"¹":{"ha":524,"x_min":109,"x_max":318,"o":"m 318 395 l 222 395 l 222 917 l 109 917 l 109 987 l 318 987 l 318 395 z "},"²":{"ha":525,"x_min":56,"x_max":469,"o":"m 468 395 l 56 395 l 56 476 l 283 676 l 286 678 q 376 810 376 758 q 343 886 376 855 q 258 917 309 917 q 175 886 205 917 q 144 799 144 854 l 144 791 l 56 791 l 56 793 q 114 941 56 886 q 267 997 172 997 q 411 944 352 997 q 469 814 469 890 q 448 732 469 770 q 375 650 426 694 l 172 476 l 468 476 l 468 395 z "},"³":{"ha":525,"x_min":47,"x_max":469,"o":"m 47 576 l 134 576 q 170 494 137 526 q 253 463 203 463 q 343 495 307 463 q 379 578 379 528 q 342 663 379 632 q 237 693 304 693 l 214 693 l 214 774 q 221 773 217 773 q 233 772 226 772 q 309 791 283 772 q 335 847 335 810 q 313 899 335 878 q 260 920 292 920 q 202 901 223 920 q 179 848 181 882 l 93 848 q 142 958 96 916 q 262 999 189 999 q 378 956 330 999 q 425 851 425 912 q 409 788 425 815 q 361 742 393 761 q 441 682 413 723 q 469 583 469 641 q 409 441 469 498 q 258 383 348 383 q 105 434 161 383 q 47 576 50 486 z "},"¼":{"ha":1234,"x_min":104,"x_max":1193,"o":"m 1131 0 l 1043 0 l 1043 96 l 770 96 l 770 167 l 1043 553 l 1131 553 l 1131 167 l 1193 167 l 1193 96 l 1131 96 l 1131 0 m 1043 167 l 1043 439 l 857 167 l 1043 167 m 865 1007 l 962 1007 l 367 -20 l 268 -20 l 865 1007 m 304 435 l 212 435 l 212 922 l 104 922 l 104 987 l 304 987 l 304 435 z "},"½":{"ha":1234,"x_min":104,"x_max":1181,"o":"m 1178 0 l 785 0 l 785 77 l 1003 262 l 1004 264 q 1092 387 1092 339 q 1060 459 1092 431 q 979 488 1028 488 q 899 458 928 488 q 869 378 869 429 l 869 371 l 785 371 l 785 372 q 840 510 785 458 q 986 562 895 562 q 1124 512 1067 562 q 1181 392 1181 463 q 1160 315 1181 351 q 1090 239 1139 279 l 896 77 l 1178 77 l 1178 0 m 865 1007 l 962 1007 l 367 -20 l 268 -20 l 865 1007 m 304 435 l 212 435 l 212 922 l 104 922 l 104 987 l 304 987 l 304 435 z "},"¾":{"ha":1234,"x_min":45,"x_max":1193,"o":"m 1131 0 l 1043 0 l 1043 96 l 770 96 l 770 167 l 1043 553 l 1131 553 l 1131 167 l 1193 167 l 1193 96 l 1131 96 l 1131 0 m 1043 167 l 1043 439 l 857 167 l 1043 167 m 865 1007 l 962 1007 l 367 -20 l 268 -20 l 865 1007 m 45 604 l 129 604 q 163 528 132 557 q 241 498 195 498 q 327 529 292 498 q 361 606 361 560 q 326 686 361 657 q 227 714 291 714 q 213 714 217 714 q 204 713 208 713 l 204 789 q 212 788 208 788 q 224 787 216 787 q 295 805 271 787 q 319 857 319 823 q 299 906 319 886 q 248 925 278 925 q 193 907 214 925 q 171 857 173 888 l 89 857 q 136 960 92 922 q 250 999 180 999 q 360 958 315 999 q 406 861 406 918 q 391 802 406 827 q 345 758 376 777 q 422 702 395 741 q 449 611 449 664 q 391 478 449 532 q 248 424 333 424 q 100 471 154 424 q 45 604 47 519 z "},"₣":{"ha":1064,"x_min":83,"x_max":1046,"o":"m 83 0 l 83 987 l 570 987 l 570 856 l 225 856 l 225 561 l 570 561 l 570 432 l 225 432 l 225 0 l 83 0 m 878 0 l 743 0 l 743 746 l 869 746 l 869 660 q 946 733 903 709 q 1046 758 989 758 l 1046 618 q 917 565 956 611 q 878 415 878 518 l 878 0 z "},"Ğ":{"ha":1093,"x_min":41,"x_max":1047,"o":"m 436 498 l 1047 498 q 897 124 1037 267 q 543 -20 758 -20 q 338 23 432 -20 q 170 150 244 66 q 74 309 106 220 q 41 500 41 398 q 81 696 41 604 q 196 864 120 789 q 357 971 268 936 q 554 1007 446 1007 q 817 937 704 1007 q 987 737 930 867 l 811 737 q 694 832 762 800 q 543 864 627 864 q 410 838 473 864 q 298 761 347 811 q 219 640 248 709 q 191 498 191 570 q 216 352 191 421 q 290 233 242 283 q 408 151 341 180 q 543 122 474 122 q 742 182 656 122 q 884 359 828 242 l 436 359 l 436 498 m 350 1291 l 424 1291 q 457 1220 427 1242 q 547 1197 487 1197 q 638 1220 608 1197 q 671 1291 668 1244 l 745 1291 q 690 1148 737 1194 q 547 1103 642 1103 q 405 1148 452 1103 q 350 1291 357 1194 z "},"ğ":{"ha":895,"x_min":41,"x_max":818,"o":"m 90 -60 l 233 -60 q 315 -139 264 -112 q 431 -167 366 -167 q 613 -99 544 -167 q 682 82 682 -31 l 682 92 q 567 11 631 38 q 432 -17 504 -17 q 153 95 264 -17 q 41 376 41 208 q 69 526 41 455 q 149 650 97 596 q 272 737 205 709 q 424 765 338 765 q 565 738 500 765 q 684 656 629 711 l 684 746 l 818 746 l 818 123 q 717 -181 818 -71 q 439 -292 616 -292 q 220 -231 311 -292 q 90 -60 129 -170 m 180 378 q 255 188 180 264 q 439 111 330 111 q 613 188 538 111 q 689 368 689 265 q 614 556 689 478 q 436 635 539 635 q 255 560 330 635 q 180 378 180 486 m 250 1054 l 323 1054 q 357 982 327 1005 q 447 960 387 960 q 537 983 507 960 q 570 1054 568 1006 l 644 1054 q 589 911 637 956 q 447 865 542 865 q 304 911 351 865 q 250 1054 257 956 z "},"İ":{"ha":315,"x_min":86,"x_max":229,"o":"m 229 0 l 86 0 l 86 987 l 229 987 l 229 0 m 93 1115 l 93 1265 l 223 1265 l 223 1115 l 93 1115 z "},"Ş":{"ha":660,"x_min":33,"x_max":616,"o":"m 34 285 l 162 285 q 208 162 165 208 q 317 117 250 117 q 435 162 391 117 q 479 285 479 208 q 447 389 479 352 q 311 457 414 425 q 292 462 305 458 q 113 571 168 495 q 75 642 87 604 q 62 722 62 680 q 138 927 62 849 q 335 1006 213 1006 q 518 936 448 1006 q 595 743 587 865 l 461 743 q 421 839 458 802 q 330 875 385 875 q 234 834 271 875 q 197 730 197 794 q 204 688 197 708 q 225 652 211 669 q 350 592 254 617 q 418 572 394 581 q 566 466 515 536 q 616 298 616 396 q 535 68 616 155 q 319 -20 454 -20 q 114 64 193 -20 q 34 285 35 148 m 157 -289 l 157 -221 q 254 -240 210 -233 q 323 -248 297 -248 q 385 -234 364 -248 q 406 -192 406 -220 q 384 -148 406 -162 q 315 -134 361 -134 q 294 -134 301 -134 q 279 -134 286 -134 l 279 0 l 330 0 l 330 -69 l 350 -69 q 463 -100 424 -69 q 501 -192 501 -132 q 458 -287 501 -254 q 332 -319 414 -319 q 253 -312 298 -319 q 157 -289 209 -304 z "},"ş":{"ha":541,"x_min":28,"x_max":504,"o":"m 28 241 l 154 241 q 187 144 154 182 q 269 106 220 106 q 346 135 316 106 q 376 208 376 163 q 355 275 376 248 q 286 321 334 302 q 240 338 270 328 q 139 386 161 368 q 80 458 99 418 q 61 551 61 498 q 124 706 61 642 q 279 770 188 770 q 431 714 375 770 q 493 557 488 658 l 364 557 q 337 621 361 598 q 273 644 313 644 q 213 620 237 644 q 189 558 189 595 q 298 456 189 496 q 346 437 328 444 q 468 351 431 403 q 504 214 504 300 q 436 47 504 113 q 265 -20 368 -20 q 98 50 161 -20 q 28 241 34 120 m 97 -289 l 97 -221 q 194 -240 151 -233 q 264 -248 237 -248 q 325 -234 304 -248 q 346 -192 346 -220 q 324 -148 346 -162 q 255 -134 302 -134 q 234 -134 241 -134 q 219 -134 227 -134 l 219 0 l 271 0 l 271 -69 l 290 -69 q 403 -100 364 -69 q 441 -192 441 -132 q 398 -287 441 -254 q 272 -319 355 -319 q 194 -312 238 -319 q 97 -289 149 -304 z "},"Ć":{"ha":1044,"x_min":41,"x_max":985,"o":"m 985 248 q 807 49 920 118 q 543 -20 693 -20 q 338 23 432 -20 q 170 150 244 66 q 74 309 106 220 q 41 500 41 398 q 81 695 41 603 q 196 864 120 788 q 356 971 268 935 q 545 1007 444 1007 q 811 935 696 1007 q 985 732 926 863 l 817 732 q 700 831 769 798 q 543 864 631 864 q 410 838 473 864 q 298 761 347 811 q 219 640 248 709 q 191 498 191 570 q 216 352 191 421 q 290 233 242 283 q 408 151 341 180 q 543 122 474 122 q 696 154 628 122 q 808 248 764 186 l 985 248 m 457 1079 l 595 1315 l 732 1315 l 538 1079 l 457 1079 z "},"ć":{"ha":842,"x_min":39,"x_max":787,"o":"m 787 254 q 648 50 741 119 q 424 -20 556 -20 q 273 9 340 -20 q 150 96 205 38 q 68 223 98 151 q 39 372 39 296 q 65 518 39 450 q 144 643 92 587 q 274 736 202 705 q 428 768 346 768 q 650 697 556 768 q 787 498 745 627 l 640 498 q 549 601 605 567 q 416 635 494 635 q 247 559 317 635 q 178 374 178 484 q 248 187 178 262 q 424 113 319 113 q 551 150 494 113 q 640 254 608 186 l 787 254 m 335 842 l 473 1078 l 610 1078 l 416 842 l 335 842 z "},"Č":{"ha":1044,"x_min":41,"x_max":985,"o":"m 985 248 q 807 49 920 118 q 543 -20 693 -20 q 338 23 432 -20 q 170 150 244 66 q 74 309 106 220 q 41 500 41 398 q 81 695 41 603 q 196 864 120 788 q 356 971 268 935 q 545 1007 444 1007 q 811 935 696 1007 q 985 732 926 863 l 817 732 q 700 831 769 798 q 543 864 631 864 q 410 838 473 864 q 298 761 347 811 q 219 640 248 709 q 191 498 191 570 q 216 352 191 421 q 290 233 242 283 q 408 151 341 180 q 543 122 474 122 q 696 154 628 122 q 808 248 764 186 l 985 248 m 354 1315 l 436 1315 l 554 1161 l 671 1315 l 754 1315 l 621 1079 l 488 1079 l 354 1315 z "},"č":{"ha":842,"x_min":39,"x_max":787,"o":"m 787 254 q 648 50 741 119 q 424 -20 556 -20 q 273 9 340 -20 q 150 96 205 38 q 68 223 98 151 q 39 372 39 296 q 65 518 39 450 q 144 643 92 587 q 274 736 202 705 q 428 768 346 768 q 650 697 556 768 q 787 498 745 627 l 640 498 q 549 601 605 567 q 416 635 494 635 q 247 559 317 635 q 178 374 178 484 q 248 187 178 262 q 424 113 319 113 q 551 150 494 113 q 640 254 608 186 l 787 254 m 232 1078 l 314 1078 l 432 924 l 549 1078 l 632 1078 l 498 842 l 366 842 l 232 1078 z "},"đ":{"ha":909,"x_min":41,"x_max":920,"o":"m 180 378 q 256 188 180 264 q 439 111 331 111 q 613 188 537 111 q 689 368 689 265 q 614 556 689 478 q 436 635 538 635 q 256 560 331 635 q 180 378 180 486 m 682 0 l 682 92 q 568 11 632 39 q 432 -17 505 -17 q 153 96 264 -17 q 41 376 41 208 q 151 653 41 541 q 424 765 260 765 q 564 738 499 765 q 684 656 628 711 l 684 814 l 485 814 l 485 895 l 684 895 l 684 987 l 818 987 l 818 895 l 920 895 l 920 814 l 818 814 l 818 0 l 682 0 z "},"­":{"ha":460,"x_min":61,"x_max":399,"o":"m 399 310 l 61 310 l 61 435 l 399 435 l 399 310 z "},"∙":{"ha":397,"x_min":122,"x_max":273,"o":"m 122 494 q 144 548 122 526 q 199 570 167 570 q 252 548 230 570 q 273 494 273 526 q 252 440 273 463 q 199 418 230 418 q 144 440 167 418 q 122 494 122 463 z "}}}
